<svg width="393" height="576" viewBox="0 0 393 576" fill="none" xmlns="http://www.w3.org/2000/svg">
<path fill-rule="evenodd" clip-rule="evenodd" d="M391.813 25.1451L390.626 25.1868L390.581 25.7261L390.536 26.2655L391.768 26.2655L393 26.2655L393 25.6844L393 25.1032L391.813 25.1451ZM392.815 89.1828C392.703 89.1399 392.165 89.1243 391.619 89.148L390.626 89.191L390.626 89.7663L390.626 90.3416L391.777 90.3416L392.928 90.3416L392.973 89.8011C393.003 89.4362 392.952 89.2353 392.815 89.1828ZM391.813 155.455L390.626 155.496L390.581 156.036L390.536 156.575L391.768 156.575L393 156.575L393 155.994L393 155.413L391.813 155.455ZM392.806 219.489C392.699 219.448 392.165 219.434 391.619 219.458L390.626 219.501L390.581 220.04L390.536 220.579L391.768 220.579L393 220.579L393 220.072C393 219.778 392.918 219.532 392.806 219.489ZM391.813 282.744L390.626 282.786L390.626 283.289L390.626 283.793L391.813 283.834L393 283.876L393 283.289L393 282.702L391.813 282.744ZM391.768 346.43L390.536 346.43L390.581 346.97L390.626 347.509L391.813 347.551L393 347.593L393 347.011L393 346.43L391.768 346.43ZM391.813 410.033L390.626 410.075L390.581 410.614L390.536 411.154L391.768 411.154L393 411.154L393 410.573L393 409.991L391.813 410.033ZM391.768 474.439L390.536 474.439L390.581 474.978L390.626 475.518L391.813 475.559L393 475.601L393 475.02L393 474.439L391.768 474.439ZM391.813 538.473L390.626 538.515L390.581 539.054L390.536 539.594L391.768 539.594L393 539.594L393 539.013L393 538.431L391.813 538.473ZM379.977 25.1149L376.452 25.1149L376.452 25.6902L376.452 26.2655L379.977 26.2655L383.503 26.2655L383.503 25.6902L383.503 25.1149L379.977 25.1149ZM379.977 89.1191L376.435 89.1191L376.48 89.7304L376.524 90.3416L379.977 90.3416L383.431 90.3416L383.475 89.7304L383.519 89.1191L379.977 89.1191ZM379.977 155.425L376.452 155.425L376.452 156L376.452 156.575L379.977 156.575L383.503 156.575L383.503 156L383.503 155.425L379.977 155.425ZM383.32 219.493C383.219 219.455 381.649 219.441 379.83 219.462L376.524 219.501L376.479 220.04L376.434 220.579L379.969 220.579L383.503 220.579L383.503 220.072C383.503 219.792 383.42 219.532 383.32 219.493ZM379.977 282.714L376.452 282.714L376.452 283.289L376.452 283.864L379.977 283.864L383.503 283.864L383.503 283.289L383.503 282.714L379.977 282.714ZM379.977 346.43L376.452 346.43L376.452 347.006L376.452 347.581L379.977 347.581L383.503 347.581L383.503 347.006L383.503 346.43L379.977 346.43ZM379.977 410.003L376.452 410.003L376.452 410.578L376.452 411.154L379.977 411.154L383.503 411.154L383.503 410.578L383.503 410.003L379.977 410.003ZM379.977 474.439L376.452 474.439L376.452 475.014L376.452 475.589L379.977 475.589L383.503 475.589L383.503 475.014L383.503 474.439L379.977 474.439ZM379.977 538.443L376.452 538.443L376.452 539.018L376.452 539.594L379.977 539.594L383.503 539.594L383.503 539.018L383.503 538.443L379.977 538.443ZM365.732 25.1149L362.206 25.1149L362.206 25.6902L362.206 26.2655L365.732 26.2655L369.257 26.2655L369.257 25.6902L369.257 25.1149L365.732 25.1149ZM365.723 89.1191L362.19 89.1191L362.234 89.7304L362.278 90.3416L365.768 90.3802L369.257 90.4187L369.257 89.7689L369.257 89.1191L365.723 89.1191ZM365.732 155.425L362.206 155.425L362.206 156L362.206 156.575L365.732 156.575L369.257 156.575L369.257 156L369.257 155.425L365.732 155.425ZM365.767 219.462L362.278 219.501L362.233 220.04L362.189 220.579L365.723 220.579L369.257 220.579L369.257 220.002L369.257 219.424L365.767 219.462ZM365.732 282.714L362.206 282.714L362.206 283.289L362.206 283.864L365.732 283.864L369.257 283.864L369.257 283.289L369.257 282.714L365.732 282.714ZM365.732 346.43L362.206 346.43L362.206 347.006L362.206 347.581L365.732 347.581L369.257 347.581L369.257 347.006L369.257 346.43L365.732 346.43ZM365.732 410.003L362.206 410.003L362.206 410.578L362.206 411.154L365.732 411.154L369.257 411.154L369.257 410.578L369.257 410.003L365.732 410.003ZM365.732 474.439L362.206 474.439L362.206 475.014L362.206 475.589L365.732 475.589L369.257 475.589L369.257 475.014L369.257 474.439L365.732 474.439ZM365.732 538.443L362.206 538.443L362.206 539.018L362.206 539.594L365.732 539.594L369.257 539.594L369.257 539.018L369.257 538.443L365.732 538.443ZM358.033 -13L357.457 -13L357.457 -9.47617L357.457 -5.95235L358.033 -5.95235L358.609 -5.95235L358.609 -9.47617L358.609 -13L358.033 -13ZM358.033 1.23914L357.457 1.23914L357.457 4.76296L357.457 8.28679L358.033 8.28679L358.609 8.28679L358.609 4.76297L358.609 1.23914L358.033 1.23914ZM358.031 15.3344L357.452 15.3344L357.491 18.8942L357.529 22.454L358.069 22.4986L358.609 22.5433L358.609 18.9388L358.609 15.3344L358.031 15.3344ZM358.033 29.5736L357.457 29.5736L357.457 33.0974L357.457 36.6212L358.033 36.6212L358.609 36.6212L358.609 33.0974L358.609 29.5736L358.033 29.5736ZM358.033 43.8127L357.457 43.8127L357.457 47.3366L357.457 50.8604L358.033 50.8604L358.609 50.8604L358.609 47.3366L358.609 43.8127L358.033 43.8127ZM358.069 57.9354L357.529 57.9799L357.491 61.5397L357.452 65.0995L358.031 65.0995L358.609 65.0995L358.609 61.4951L358.609 57.8906L358.069 57.9354ZM358.031 72.1472L357.452 72.1472L357.491 75.707L357.529 79.2667L358.069 79.3113L358.609 79.3561L358.609 75.7515L358.609 72.1472L358.031 72.1472ZM358.033 86.3863L357.457 86.3863L357.457 89.9101L357.457 93.434L358.033 93.434L358.609 93.434L358.609 89.9101L358.609 86.3863L358.033 86.3863ZM358.069 100.509L357.529 100.554L357.529 104.077L357.529 107.601L358.069 107.646L358.609 107.691L358.609 104.077L358.609 100.464L358.069 100.509ZM358.069 114.748L357.529 114.793L357.529 118.317L357.529 121.84L358.069 121.885L358.609 121.93L358.609 118.317L358.609 114.703L358.069 114.748ZM358.03 124.214L357.452 124.214L357.491 127.629L357.529 131.045L358.069 131.09L358.609 131.135L358.609 127.674L358.609 124.214L358.03 124.214ZM358.033 138.165L357.457 138.165L357.457 141.689L357.457 145.213L358.033 145.213L358.609 145.213L358.609 141.689L358.609 138.165L358.033 138.165ZM358.069 152.288L357.529 152.332L357.491 155.892L357.452 159.452L358.031 159.452L358.609 159.452L358.609 155.847L358.609 152.243L358.069 152.288ZM358.031 166.499L357.452 166.499L357.491 170.059L357.529 173.619L358.069 173.664L358.609 173.708L358.609 170.104L358.609 166.499L358.031 166.499ZM358.033 180.739L357.457 180.739L357.457 184.262L357.457 187.786L358.033 187.786L358.609 187.786L358.609 184.262L358.609 180.739L358.033 180.739ZM358.069 194.861L357.529 194.906L357.491 198.466L357.452 202.025L358.031 202.025L358.609 202.025L358.609 198.421L358.609 194.816L358.069 194.861ZM358.069 209.1L357.529 209.145L357.529 212.669L357.529 216.193L358.069 216.237L358.609 216.282L358.609 212.669L358.609 209.056L358.069 209.1ZM358.033 223.312L357.457 223.312L357.457 226.836L357.457 230.36L358.033 230.36L358.609 230.36L358.609 226.836L358.609 223.312L358.033 223.312ZM358.403 237.464C358.29 237.42 358.047 237.406 357.864 237.432L357.529 237.479L357.491 241.039L357.452 244.599L358.031 244.599L358.609 244.599L358.609 241.071C358.609 238.147 358.573 237.529 358.403 237.464ZM358.069 251.674L357.529 251.719L357.491 255.278L357.452 258.838L358.031 258.838L358.609 258.838L358.609 255.234L358.609 251.629L358.069 251.674ZM358.069 265.913L357.529 265.958L357.529 269.482L357.529 273.005L358.069 273.05L358.609 273.095L358.609 269.482L358.609 265.868L358.069 265.913ZM358.033 280.125L357.457 280.125L357.457 283.649L357.457 287.173L358.033 287.173L358.609 287.173L358.609 283.649L358.609 280.125L358.033 280.125ZM358.033 294.364L357.457 294.364L357.457 297.888L357.457 301.412L358.033 301.412L358.609 301.412L358.609 297.888L358.609 294.364L358.033 294.364ZM358.069 308.487L357.529 308.531L357.529 312.055L357.529 315.579L358.069 315.624L358.609 315.668L358.609 312.055L358.609 308.442L358.069 308.487ZM358.033 322.698L357.457 322.698L357.457 326.222L357.457 329.746L358.033 329.746L358.609 329.746L358.609 326.222L358.609 322.698L358.033 322.698ZM358.033 336.938L357.457 336.938L357.457 340.461L357.457 343.985L358.033 343.985L358.609 343.985L358.609 340.461L358.609 336.938L358.033 336.938ZM358.069 351.06L357.529 351.105L357.529 354.629L357.529 358.153L358.069 358.197L358.609 358.242L358.609 354.629L358.609 351.016L358.069 351.06ZM358.031 365.272L357.452 365.272L357.491 368.832L357.529 372.392L358.069 372.436L358.609 372.481L358.609 368.876L358.609 365.272L358.031 365.272ZM358.033 379.511L357.457 379.511L357.457 383.035L357.457 386.559L358.033 386.559L358.609 386.559L358.609 383.035L358.609 379.511L358.033 379.511ZM358.069 393.634L357.529 393.678L357.491 397.238L357.452 400.798L358.031 400.798L358.609 400.798L358.609 397.194L358.609 393.589L358.069 393.634ZM358.031 407.846L357.452 407.846L357.491 411.405L357.529 414.965L358.069 415.01L358.609 415.055L358.609 411.45L358.609 407.846L358.031 407.846ZM358.033 422.085L357.457 422.085L357.457 425.609L357.457 429.132L358.033 429.132L358.609 429.132L358.609 425.609L358.609 422.085L358.033 422.085ZM358.033 436.324L357.457 436.324L357.457 439.848L357.457 443.372L358.033 443.372L358.609 443.372L358.609 439.848L358.609 436.324L358.033 436.324ZM358.069 450.447L357.529 450.491L357.529 454.015L357.529 457.539L358.069 457.583L358.609 457.628L358.609 454.015L358.609 450.402L358.069 450.447ZM358.033 464.658L357.457 464.658L357.457 468.182L357.457 471.706L358.033 471.706L358.609 471.706L358.609 468.182L358.609 464.658L358.033 464.658ZM358.069 478.781L357.529 478.826L357.491 482.385L357.452 485.945L358.031 485.945L358.609 485.945L358.609 482.341L358.609 478.736L358.069 478.781ZM358.069 493.02L357.529 493.065L357.529 496.589L357.529 500.112L358.069 500.157L358.609 500.202L358.609 496.589L358.609 492.975L358.069 493.02ZM358.033 507.232L357.452 507.232L357.491 510.792L357.529 514.352L358.033 514.352L358.537 514.352L358.575 510.792L358.614 507.232L358.033 507.232ZM358.033 521.471L357.457 521.471L357.457 524.995L357.457 528.519L358.033 528.519L358.609 528.519L358.609 524.995L358.609 521.471L358.033 521.471ZM358.069 535.594L357.529 535.638L357.491 539.198L357.452 542.758L358.031 542.758L358.609 542.758L358.609 539.154L358.609 535.549L358.069 535.594ZM358.031 549.806L357.452 549.806L357.491 553.365L357.529 556.925L358.069 556.97L358.609 557.014L358.609 553.41L358.609 549.806L358.031 549.806ZM358.033 564.045L357.457 564.045L357.457 567.569L357.457 571.092L358.033 571.092L358.609 571.092L358.609 567.569L358.609 564.045L358.033 564.045ZM358.027 573.537L357.446 573.537L357.488 574.724L357.529 575.911L358.069 575.955L358.609 576L358.609 574.769L358.609 573.537L358.027 573.537ZM351.558 25.1149L347.96 25.1149L347.96 25.6902L347.96 26.2655L351.558 26.2655L355.155 26.2655L355.155 25.6902L355.155 25.1149L351.558 25.1149ZM354.981 89.1871C354.876 89.1467 353.269 89.131 351.411 89.1523L348.032 89.191L348.032 89.7663L348.032 90.3416L351.558 90.3416L355.083 90.3416L355.128 89.8011C355.157 89.4496 355.106 89.2349 354.981 89.1871ZM351.558 155.425L347.96 155.425L347.96 156L347.96 156.575L351.558 156.575L355.155 156.575L355.155 156L355.155 155.425L351.558 155.425ZM354.972 219.493C354.872 219.455 353.269 219.441 351.411 219.462L348.032 219.501L347.988 220.04L347.943 220.579L351.549 220.579L355.155 220.579L355.155 220.072C355.155 219.792 355.073 219.532 354.972 219.493ZM351.558 282.714L347.96 282.714L347.96 283.289L347.96 283.864L351.558 283.864L355.155 283.864L355.155 283.289L355.155 282.714L351.558 282.714ZM351.558 346.43L347.96 346.43L347.96 347.006L347.96 347.581L351.558 347.581L355.155 347.581L355.155 347.006L355.155 346.43L351.558 346.43ZM351.558 410.003L347.96 410.003L347.96 410.578L347.96 411.154L351.558 411.154L355.155 411.154L355.155 410.578L355.155 410.003L351.558 410.003ZM351.558 474.439L347.96 474.439L347.96 475.014L347.96 475.589L351.558 475.589L355.155 475.589L355.155 475.014L355.155 474.439L351.558 474.439ZM351.558 538.443L347.96 538.443L347.96 539.018L347.96 539.594L351.558 539.594L355.155 539.594L355.155 539.018L355.155 538.443L351.558 538.443ZM337.384 25.1149L333.858 25.1149L333.858 25.6902L333.858 26.2655L337.384 26.2655L340.909 26.2655L340.909 25.6902L340.909 25.1149L337.384 25.1149ZM337.384 89.1191L333.858 89.1191L333.858 89.7663L333.858 90.4135L337.384 90.4135L340.909 90.4135L340.909 89.7663L340.909 89.1191L337.384 89.1191ZM337.384 155.425L333.858 155.425L333.858 156L333.858 156.575L337.384 156.575L340.909 156.575L340.909 156L340.909 155.425L337.384 155.425ZM337.384 219.429L333.858 219.429L333.858 220.004L333.858 220.579L337.384 220.579L340.909 220.579L340.909 220.004L340.909 219.429L337.384 219.429ZM337.384 282.714L333.858 282.714L333.858 283.289L333.858 283.864L337.384 283.864L340.909 283.864L340.909 283.289L340.909 282.714L337.384 282.714ZM337.384 346.43L333.858 346.43L333.858 347.006L333.858 347.581L337.384 347.581L340.909 347.581L340.909 347.006L340.909 346.43L337.384 346.43ZM337.384 410.003L333.858 410.003L333.858 410.578L333.858 411.154L337.384 411.154L340.909 411.154L340.909 410.578L340.909 410.003L337.384 410.003ZM337.384 474.439L333.858 474.439L333.858 475.014L333.858 475.589L337.384 475.589L340.909 475.589L340.909 475.014L340.909 474.439L337.384 474.439ZM337.384 538.443L333.858 538.443L333.858 539.018L333.858 539.594L337.384 539.594L340.909 539.594L340.909 539.018L340.909 538.443L337.384 538.443ZM323.138 25.1149L319.613 25.1149L319.613 25.6902L319.613 26.2655L323.138 26.2655L326.664 26.2655L326.664 25.6902L326.664 25.1149L323.138 25.1149ZM323.13 89.1191L319.596 89.1191L319.64 89.7304L319.685 90.3416L323.174 90.3802L326.664 90.4187L326.664 89.7689L326.664 89.1191L323.13 89.1191ZM323.138 155.425L319.613 155.425L319.613 156L319.613 156.575L323.138 156.575L326.664 156.575L326.664 156L326.664 155.425L323.138 155.425ZM323.174 219.462L319.685 219.501L319.64 220.04L319.595 220.579L323.129 220.579L326.664 220.579L326.664 220.002L326.664 219.424L323.174 219.462ZM323.138 282.714L319.613 282.714L319.613 283.289L319.613 283.864L323.138 283.864L326.663 283.864L326.663 283.289L326.663 282.714L323.138 282.714ZM323.138 346.43L319.613 346.43L319.613 347.006L319.613 347.581L323.138 347.581L326.663 347.581L326.663 347.006L326.663 346.43L323.138 346.43ZM323.138 410.003L319.613 410.003L319.613 410.578L319.613 411.154L323.138 411.154L326.663 411.154L326.663 410.578L326.663 410.003L323.138 410.003ZM323.138 474.439L319.613 474.439L319.613 475.014L319.613 475.589L323.138 475.589L326.663 475.589L326.663 475.014L326.663 474.439L323.138 474.439ZM323.138 538.443L319.613 538.443L319.613 539.018L319.613 539.594L323.138 539.594L326.663 539.594L326.663 539.018L326.663 538.443L323.138 538.443ZM308.964 25.1149L305.367 25.1149L305.367 25.6902L305.367 26.2655L308.964 26.2655L312.562 26.2655L312.562 25.6902L312.562 25.1149L308.964 25.1149ZM312.387 89.1871C312.282 89.1467 310.676 89.131 308.817 89.1523L305.439 89.191L305.439 89.7663L305.439 90.3416L308.964 90.3416L312.49 90.3416L312.534 89.8011C312.563 89.4496 312.512 89.2349 312.387 89.1871ZM312.466 155.52C312.413 155.468 310.794 155.425 308.868 155.425L305.367 155.425L305.367 156L305.367 156.575L308.964 156.575L312.562 156.575L312.562 156.096C312.562 155.832 312.518 155.573 312.466 155.52ZM312.379 219.493C312.278 219.455 310.676 219.441 308.817 219.462L305.439 219.501L305.394 220.04L305.349 220.579L308.956 220.579L312.562 220.579L312.562 220.072C312.562 219.792 312.479 219.532 312.379 219.493ZM312.466 282.81C312.413 282.757 310.794 282.714 308.868 282.714L305.367 282.714L305.367 283.289L305.367 283.864L308.964 283.864L312.562 283.864L312.562 283.385C312.562 283.121 312.518 282.862 312.466 282.81ZM308.973 346.43L305.367 346.43L305.367 347.008L305.367 347.586L308.928 347.548L312.49 347.509L312.534 346.97L312.579 346.43L308.973 346.43ZM312.466 410.099C312.413 410.046 310.794 410.003 308.868 410.003L305.367 410.003L305.367 410.578L305.367 411.154L308.964 411.154L312.562 411.154L312.562 410.674C312.562 410.411 312.518 410.152 312.466 410.099ZM308.964 474.439L305.367 474.439L305.367 475.014L305.367 475.589L308.964 475.589L312.562 475.589L312.562 475.014L312.562 474.439L308.964 474.439ZM312.466 538.539C312.413 538.486 310.794 538.443 308.868 538.443L305.367 538.443L305.367 539.018L305.367 539.594L308.964 539.594L312.562 539.594L312.562 539.114C312.562 538.85 312.518 538.592 312.466 538.539ZM294.718 25.1149L291.121 25.1149L291.121 25.6902L291.121 26.2655L294.718 26.2655L298.316 26.2655L298.316 25.6902L298.316 25.1149L294.718 25.1149ZM298.227 89.2218C298.17 89.1652 297.422 89.1191 296.565 89.1191L295.006 89.1191L295.006 87.7527L295.006 86.3863L294.431 86.3863L293.855 86.3863L293.855 87.7472L293.855 89.1083L292.524 89.1496L291.193 89.191L291.193 89.7663L291.193 90.3416L292.524 90.3831L293.855 90.4243L293.855 91.9292L293.855 93.434L294.431 93.434L295.006 93.434L295.006 91.9285L295.006 90.423L296.625 90.3823L298.244 90.3416L298.287 89.833C298.31 89.5534 298.283 89.2783 298.227 89.2218ZM296.666 155.425L295.016 155.425L294.975 153.878L294.934 152.332L294.395 152.288L293.855 152.243L293.855 153.834L293.855 155.425L292.488 155.425L291.121 155.425L291.121 156L291.121 156.575L292.488 156.575L293.855 156.575L293.855 158.013L293.855 159.452L294.431 159.452L295.006 159.452L295.006 158.013L295.006 156.575L296.661 156.575L298.316 156.575L298.316 156L298.316 155.425L296.666 155.425ZM298.133 219.493C298.032 219.455 296.43 219.441 294.571 219.462L291.193 219.501L291.148 220.04L291.104 220.579L294.71 220.579L298.316 220.579L298.316 220.072C298.316 219.792 298.233 219.532 298.133 219.493ZM298.22 282.81C298.167 282.757 297.422 282.714 296.565 282.714L295.006 282.714L295.006 281.419L295.006 280.125L294.431 280.125L293.855 280.125L293.855 281.419L293.855 282.714L292.488 282.714L291.121 282.714L291.121 283.289L291.121 283.864L292.488 283.864L293.855 283.864L293.855 285.519L293.855 287.173L294.431 287.173L295.006 287.173L295.006 285.519L295.006 283.864L296.661 283.864L298.316 283.864L298.316 283.385C298.316 283.121 298.273 282.862 298.22 282.81ZM294.718 346.43L291.121 346.43L291.121 347.006L291.121 347.581L294.718 347.581L298.316 347.581L298.316 347.006L298.316 346.43L294.718 346.43ZM296.661 410.003L295.006 410.003L295.006 408.924L295.006 407.846L294.431 407.846L293.855 407.846L293.855 408.924L293.855 410.003L292.488 410.003L291.121 410.003L291.121 410.578L291.121 411.154L292.488 411.154L293.855 411.154L293.855 413.104L293.855 415.055L294.395 415.01L294.934 414.965L294.974 413.059L295.015 411.154L296.665 411.154L298.316 411.154L298.316 410.578L298.316 410.003L296.661 410.003ZM294.718 474.439L291.121 474.439L291.121 475.014L291.121 475.589L294.718 475.589L298.316 475.589L298.316 475.014L298.316 474.439L294.718 474.439ZM298.22 538.539C298.167 538.486 297.422 538.443 296.565 538.443L295.006 538.443L295.006 537.005L295.006 535.566L294.431 535.566L293.855 535.566L293.855 537.005L293.855 538.443L292.488 538.443L291.121 538.443L291.121 539.018L291.121 539.594L292.488 539.594L293.855 539.594L293.855 541.176L293.855 542.758L294.431 542.758L295.006 542.758L295.006 541.176L295.006 539.594L296.661 539.594L298.316 539.594L298.316 539.114C298.316 538.85 298.273 538.592 298.22 538.539ZM294.431 -13L293.855 -13L293.855 -9.47618L293.855 -5.95235L294.431 -5.95235L295.006 -5.95235L295.006 -9.47618L295.006 -13L294.431 -13ZM294.431 1.23913L293.855 1.23913L293.855 4.76296L293.855 8.28679L294.431 8.28679L295.006 8.28679L295.006 4.76296L295.006 1.23913L294.431 1.23913ZM294.433 15.3344L293.855 15.3344L293.855 18.9388L293.855 22.5433L294.395 22.4986L294.934 22.454L294.973 18.8942L295.011 15.3344L294.433 15.3344ZM294.431 29.5736L293.855 29.5736L293.855 33.0974L293.855 36.6212L294.431 36.6212L295.006 36.6212L295.006 33.0974L295.006 29.5736L294.431 29.5736ZM294.431 43.8127L293.855 43.8127L293.855 47.3365L293.855 50.8604L294.431 50.8604L295.006 50.8604L295.006 47.3366L295.006 43.8127L294.431 43.8127ZM294.91 58.004C294.858 57.9512 294.599 57.908 294.335 57.908L293.855 57.908L293.855 61.5038L293.855 65.0995L294.431 65.0995L295.006 65.0995L295.006 61.5997C295.006 59.6747 294.963 58.0566 294.91 58.004ZM294.433 72.1472L293.855 72.1472L293.855 75.7515L293.855 79.3561L294.395 79.3113L294.934 79.2667L294.973 75.707L295.011 72.1472L294.433 72.1472ZM294.91 100.578C294.858 100.525 294.599 100.482 294.335 100.482L293.855 100.482L293.855 104.077L293.855 107.673L294.431 107.673L295.006 107.673L295.006 104.173C295.006 102.248 294.963 100.63 294.91 100.578ZM294.433 114.721L293.855 114.721L293.855 118.325L293.855 121.93L294.395 121.885L294.934 121.84L294.973 118.281L295.011 114.721L294.433 114.721ZM294.433 124.214L293.855 124.214L293.855 127.674L293.855 131.135L294.395 131.09L294.934 131.045L294.973 127.629L295.011 124.214L294.433 124.214ZM294.431 138.165L293.855 138.165L293.855 141.689L293.855 145.213L294.431 145.213L295.006 145.213L295.006 141.689L295.006 138.165L294.431 138.165ZM294.433 166.499L293.855 166.499L293.855 170.104L293.855 173.708L294.395 173.664L294.934 173.619L294.973 170.059L295.011 166.499L294.433 166.499ZM294.431 180.739L293.855 180.739L293.855 184.262L293.855 187.786L294.431 187.786L295.006 187.786L295.006 184.262L295.006 180.739L294.431 180.739ZM294.91 194.93C294.858 194.877 294.599 194.834 294.335 194.834L293.855 194.834L293.855 198.43L293.855 202.025L294.431 202.025L295.006 202.025L295.006 198.526C295.006 196.601 294.963 194.982 294.91 194.93ZM294.431 209.073L293.855 209.073L293.855 212.669L293.855 216.265L294.431 216.265L295.006 216.265L295.006 212.669L295.006 209.073L294.431 209.073ZM294.431 223.312L293.855 223.312L293.855 226.836L293.855 230.36L294.431 230.36L295.006 230.36L295.006 226.836L295.006 223.312L294.431 223.312ZM294.91 237.503C294.858 237.451 294.599 237.407 294.335 237.407L293.855 237.407L293.855 241.003L293.855 244.599L294.431 244.599L295.006 244.599L295.006 241.099C295.006 239.174 294.963 237.556 294.91 237.503ZM294.91 251.743C294.858 251.69 294.599 251.647 294.335 251.647L293.855 251.647L293.855 255.242L293.855 258.838L294.431 258.838L295.006 258.838L295.006 255.338C295.006 253.413 294.963 251.795 294.91 251.743ZM294.433 265.886L293.855 265.886L293.855 269.49L293.855 273.095L294.395 273.05L294.934 273.005L294.973 269.446L295.011 265.886L294.433 265.886ZM294.431 294.364L293.855 294.364L293.855 297.888L293.855 301.412L294.431 301.412L295.006 301.412L295.006 297.888L295.006 294.364L294.431 294.364ZM294.431 308.459L293.855 308.459L293.855 312.055L293.855 315.651L294.431 315.651L295.006 315.651L295.006 312.055L295.006 308.459L294.431 308.459ZM294.431 322.698L293.855 322.698L293.855 326.222L293.855 329.746L294.431 329.746L295.006 329.746L295.006 326.222L295.006 322.698L294.431 322.698ZM294.431 336.938L293.855 336.938L293.855 340.461L293.855 343.985L294.431 343.985L295.006 343.985L295.006 340.461L295.006 336.938L294.431 336.938ZM294.91 351.129C294.858 351.076 294.599 351.033 294.335 351.033L293.855 351.033L293.855 354.629L293.855 358.224L294.431 358.224L295.006 358.224L295.006 354.725C295.006 352.8 294.963 351.182 294.91 351.129ZM294.433 365.272L293.855 365.272L293.855 368.876L293.855 372.481L294.395 372.436L294.934 372.392L294.973 368.832L295.011 365.272L294.433 365.272ZM294.431 379.511L293.855 379.511L293.855 383.035L293.855 386.559L294.431 386.559L295.006 386.559L295.006 383.035L295.006 379.511L294.431 379.511ZM294.431 393.607L293.855 393.607L293.855 397.202L293.855 400.798L294.431 400.798L295.006 400.798L295.006 397.202L295.006 393.607L294.431 393.607ZM294.431 422.085L293.855 422.085L293.855 425.609L293.855 429.132L294.431 429.132L295.006 429.132L295.006 425.609L295.006 422.085L294.431 422.085ZM294.431 436.324L293.855 436.324L293.855 439.848L293.855 443.372L294.431 443.372L295.006 443.372L295.006 439.848L295.006 436.324L294.431 436.324ZM294.431 450.419L293.855 450.419L293.855 454.015L293.855 457.611L294.431 457.611L295.006 457.611L295.006 454.015L295.006 450.419L294.431 450.419ZM294.431 464.658L293.855 464.658L293.855 468.182L293.855 471.706L294.431 471.706L295.006 471.706L295.006 468.182L295.006 464.658L294.431 464.658ZM294.91 478.85C294.858 478.797 294.599 478.754 294.335 478.754L293.855 478.754L293.855 482.349L293.855 485.945L294.431 485.945L295.006 485.945L295.006 482.445C295.006 480.52 294.963 478.902 294.91 478.85ZM294.913 493.091C294.859 493.037 294.599 492.993 294.335 492.993L293.855 492.993L293.855 496.597L293.855 500.202L294.395 500.157L294.934 500.112L294.973 496.651C294.994 494.747 294.967 493.145 294.913 493.091ZM294.433 507.232L293.855 507.232L293.855 510.836L293.855 514.441L294.395 514.396L294.934 514.352L294.973 510.792L295.011 507.232L294.433 507.232ZM294.431 521.471L293.855 521.471L293.855 524.995L293.855 528.519L294.431 528.519L295.006 528.519L295.006 524.995L295.006 521.471L294.431 521.471ZM294.433 549.806L293.855 549.806L293.855 553.41L293.855 557.014L294.395 556.97L294.934 556.925L294.973 553.365L295.011 549.806L294.433 549.806ZM294.431 564.045L293.855 564.045L293.855 567.569L293.855 571.092L294.431 571.092L295.006 571.092L295.006 567.569L295.006 564.045L294.431 564.045ZM294.436 573.537L293.855 573.537L293.855 574.769L293.855 576L294.395 575.955L294.934 575.911L294.976 574.724L295.018 573.537L294.436 573.537ZM280.545 25.1149L277.019 25.1149L277.019 25.6902L277.019 26.2655L280.545 26.2655L284.07 26.2655L284.07 25.6902L284.07 25.1149L280.545 25.1149ZM280.545 89.1191L277.019 89.1191L277.019 89.7663L277.019 90.4135L280.545 90.4135L284.07 90.4135L284.07 89.7663L284.07 89.1191L280.545 89.1191ZM280.545 155.425L277.019 155.425L277.019 156L277.019 156.575L280.545 156.575L284.07 156.575L284.07 156L284.07 155.425L280.545 155.425ZM280.545 219.429L277.019 219.429L277.019 220.004L277.019 220.579L280.545 220.579L284.07 220.579L284.07 220.004L284.07 219.429L280.545 219.429ZM280.545 282.714L277.019 282.714L277.019 283.289L277.019 283.864L280.545 283.864L284.07 283.864L284.07 283.289L284.07 282.714L280.545 282.714ZM280.545 346.43L277.019 346.43L277.019 347.006L277.019 347.581L280.545 347.581L284.07 347.581L284.07 347.006L284.07 346.43L280.545 346.43ZM280.545 410.003L277.019 410.003L277.019 410.578L277.019 411.154L280.545 411.154L284.07 411.154L284.07 410.578L284.07 410.003L280.545 410.003ZM280.545 474.439L277.019 474.439L277.019 475.014L277.019 475.589L280.545 475.589L284.07 475.589L284.07 475.014L284.07 474.439L280.545 474.439ZM280.545 538.443L277.019 538.443L277.019 539.018L277.019 539.594L280.545 539.594L284.07 539.594L284.07 539.018L284.07 538.443L280.545 538.443ZM266.299 25.1149L262.773 25.1149L262.773 25.6902L262.773 26.2655L266.299 26.2655L269.824 26.2655L269.824 25.6902L269.824 25.1149L266.299 25.1149ZM266.299 89.1191L262.773 89.1191L262.773 89.7663L262.773 90.4135L266.299 90.4135L269.824 90.4135L269.824 89.7663L269.824 89.1191L266.299 89.1191ZM266.299 155.425L262.773 155.425L262.773 156L262.773 156.575L266.299 156.575L269.824 156.575L269.824 156L269.824 155.425L266.299 155.425ZM266.299 219.429L262.773 219.429L262.773 220.004L262.773 220.579L266.299 220.579L269.824 220.579L269.824 220.004L269.824 219.429L266.299 219.429ZM266.299 282.714L262.773 282.714L262.773 283.289L262.773 283.864L266.299 283.864L269.824 283.864L269.824 283.289L269.824 282.714L266.299 282.714ZM266.299 346.43L262.773 346.43L262.773 347.006L262.773 347.581L266.299 347.581L269.824 347.581L269.824 347.006L269.824 346.43L266.299 346.43ZM266.299 410.003L262.773 410.003L262.773 410.578L262.773 411.154L266.299 411.154L269.824 411.154L269.824 410.578L269.824 410.003L266.299 410.003ZM266.299 474.439L262.773 474.439L262.773 475.014L262.773 475.589L266.299 475.589L269.824 475.589L269.824 475.014L269.824 474.439L266.299 474.439ZM266.299 538.443L262.773 538.443L262.773 539.018L262.773 539.594L266.299 539.594L269.824 539.594L269.824 539.018L269.824 538.443L266.299 538.443ZM252.125 25.1149L248.527 25.1149L248.527 25.6902L248.527 26.2655L252.125 26.2655L255.722 26.2655L255.722 25.6902L255.722 25.1149L252.125 25.1149ZM255.548 89.1871C255.443 89.1467 253.836 89.131 251.978 89.1523L248.599 89.191L248.599 89.7663L248.599 90.3416L252.125 90.3416L255.65 90.3416L255.695 89.8011C255.724 89.4496 255.673 89.2349 255.548 89.1871ZM252.125 155.425L248.527 155.425L248.527 156L248.527 156.575L252.125 156.575L255.722 156.575L255.722 156L255.722 155.425L252.125 155.425ZM255.539 219.493C255.439 219.455 253.836 219.441 251.978 219.462L248.599 219.501L248.555 220.04L248.51 220.579L252.116 220.579L255.722 220.579L255.722 220.072C255.722 219.792 255.64 219.532 255.539 219.493ZM252.161 282.747L248.599 282.786L248.555 283.325L248.51 283.864L252.116 283.864L255.722 283.864L255.722 283.287L255.722 282.709L252.161 282.747ZM252.125 346.43L248.527 346.43L248.527 347.006L248.527 347.581L252.125 347.581L255.722 347.581L255.722 347.006L255.722 346.43L252.125 346.43ZM252.125 410.003L248.527 410.003L248.527 410.578L248.527 411.154L252.125 411.154L255.722 411.154L255.722 410.578L255.722 410.003L252.125 410.003ZM252.125 474.439L248.527 474.439L248.527 475.014L248.527 475.589L252.125 475.589L255.722 475.589L255.722 475.014L255.722 474.439L252.125 474.439ZM252.125 538.443L248.527 538.443L248.527 539.018L248.527 539.594L252.125 539.594L255.722 539.594L255.722 539.018L255.722 538.443L252.125 538.443ZM237.879 25.1149L234.282 25.1149L234.282 25.6902L234.282 26.2655L237.879 26.2655L241.477 26.2655L241.477 25.6902L241.477 25.1149L237.879 25.1149ZM241.302 89.1871C241.197 89.1467 239.59 89.131 237.732 89.1523L234.354 89.191L234.354 89.7663L234.354 90.3416L237.879 90.3416L241.405 90.3416L241.449 89.8011C241.478 89.4496 241.427 89.2349 241.302 89.1871ZM237.915 155.458L234.354 155.496L234.309 156.036L234.264 156.575L237.87 156.575L241.477 156.575L241.477 155.997L241.477 155.42L237.915 155.458ZM241.294 219.493C241.193 219.455 239.59 219.441 237.732 219.462L234.354 219.501L234.309 220.04L234.264 220.579L237.87 220.579L241.477 220.579L241.477 220.072C241.477 219.792 241.394 219.532 241.294 219.493ZM237.915 282.747L234.354 282.786L234.309 283.325L234.264 283.864L237.87 283.864L241.477 283.864L241.477 283.287L241.477 282.709L237.915 282.747ZM237.87 346.43L234.264 346.43L234.309 346.97L234.354 347.509L237.915 347.548L241.477 347.586L241.477 347.008L241.477 346.43L237.87 346.43ZM237.915 410.037L234.354 410.075L234.309 410.614L234.264 411.154L237.87 411.154L241.477 411.154L241.477 410.576L241.477 409.998L237.915 410.037ZM237.879 474.439L234.282 474.439L234.282 475.014L234.282 475.589L237.879 475.589L241.477 475.589L241.477 475.014L241.477 474.439L237.879 474.439ZM237.915 538.477L234.354 538.515L234.309 539.054L234.264 539.594L237.87 539.594L241.477 539.594L241.477 539.016L241.477 538.438L237.915 538.477ZM231.116 -13L230.54 -13L230.54 -9.47618L230.54 -5.95235L231.116 -5.95235L231.692 -5.95235L231.692 -9.47618L231.692 -13L231.116 -13ZM231.116 1.23913L230.54 1.23913L230.54 4.76296L230.54 8.28679L231.116 8.28679L231.692 8.28679L231.692 4.76296L231.692 1.23913L231.116 1.23913ZM231.118 15.3344L230.54 15.3344L230.54 18.9388L230.54 22.5433L231.08 22.4986L231.62 22.454L231.658 18.8942L231.697 15.3344L231.118 15.3344ZM231.116 29.5736L230.54 29.5736L230.54 33.0974L230.54 36.6212L231.116 36.6212L231.692 36.6212L231.692 33.0974L231.692 29.5736L231.116 29.5736ZM231.116 43.8127L230.54 43.8127L230.54 47.3365L230.54 50.8604L231.116 50.8604L231.692 50.8604L231.692 47.3365L231.692 43.8127L231.116 43.8127ZM231.596 58.004C231.543 57.9512 231.284 57.908 231.02 57.908L230.54 57.908L230.54 61.5038L230.54 65.0995L231.116 65.0995L231.692 65.0995L231.692 61.5997C231.692 59.6747 231.648 58.0566 231.596 58.004ZM231.116 72.1472L230.535 72.1472L230.574 75.707L230.612 79.2667L231.116 79.2667L231.62 79.2667L231.658 75.707L231.697 72.1472L231.116 72.1472ZM231.116 86.3863L230.54 86.3863L230.54 89.9101L230.54 93.434L231.116 93.434L231.692 93.434L231.692 89.9101L231.692 86.3863L231.116 86.3863ZM231.596 100.578C231.543 100.525 231.284 100.482 231.02 100.482L230.54 100.482L230.54 104.077L230.54 107.673L231.116 107.673L231.692 107.673L231.692 104.173C231.692 102.248 231.648 100.63 231.596 100.578ZM231.118 114.721L230.54 114.721L230.54 118.325L230.54 121.93L231.08 121.885L231.62 121.84L231.658 118.281L231.697 114.721L231.118 114.721ZM231.119 124.214L230.54 124.214L230.54 127.674L230.54 131.135L231.08 131.09L231.62 131.045L231.658 127.629L231.697 124.214L231.119 124.214ZM231.116 138.165L230.54 138.165L230.54 141.689L230.54 145.213L231.116 145.213L231.692 145.213L231.692 141.689L231.692 138.165L231.116 138.165ZM231.596 152.356C231.543 152.303 231.284 152.26 231.02 152.26L230.54 152.26L230.54 155.856L230.54 159.452L231.116 159.452L231.692 159.452L231.692 155.952C231.692 154.027 231.648 152.409 231.596 152.356ZM231.118 166.499L230.54 166.499L230.54 170.104L230.54 173.708L231.08 173.664L231.62 173.619L231.658 170.059L231.697 166.499L231.118 166.499ZM231.116 180.739L230.54 180.739L230.54 184.262L230.54 187.786L231.116 187.786L231.692 187.786L231.692 184.262L231.692 180.739L231.116 180.739ZM231.596 194.93C231.543 194.877 231.284 194.834 231.02 194.834L230.54 194.834L230.54 198.43L230.54 202.025L231.116 202.025L231.692 202.025L231.692 198.526C231.692 196.601 231.648 194.982 231.596 194.93ZM231.116 209.073L230.54 209.073L230.54 212.669L230.54 216.265L231.116 216.265L231.692 216.265L231.692 212.669L231.692 209.073L231.116 209.073ZM231.116 223.312L230.54 223.312L230.54 226.836L230.54 230.36L231.116 230.36L231.692 230.36L231.692 226.836L231.692 223.312L231.116 223.312ZM231.486 237.464C231.373 237.42 231.13 237.406 230.947 237.432L230.612 237.479L230.574 241.039L230.535 244.599L231.113 244.599L231.692 244.599L231.692 241.071C231.692 238.147 231.656 237.529 231.486 237.464ZM231.596 251.743C231.543 251.69 231.284 251.647 231.02 251.647L230.54 251.647L230.54 255.242L230.54 258.838L231.116 258.838L231.692 258.838L231.692 255.338C231.692 253.413 231.648 251.795 231.596 251.743ZM231.118 265.886L230.54 265.886L230.54 269.49L230.54 273.095L231.08 273.05L231.62 273.005L231.658 269.446L231.697 265.886L231.118 265.886ZM231.116 280.125L230.54 280.125L230.54 283.649L230.54 287.173L231.116 287.173L231.692 287.173L231.692 283.649L231.692 280.125L231.116 280.125ZM231.116 294.364L230.54 294.364L230.54 297.888L230.54 301.412L231.116 301.412L231.692 301.412L231.692 297.888L231.692 294.364L231.116 294.364ZM231.116 308.459L230.54 308.459L230.54 312.055L230.54 315.651L231.116 315.651L231.692 315.651L231.692 312.055L231.692 308.459L231.116 308.459ZM231.116 322.698L230.54 322.698L230.54 326.222L230.54 329.746L231.116 329.746L231.692 329.746L231.692 326.222L231.692 322.698L231.116 322.698ZM231.116 336.938L230.54 336.938L230.54 340.461L230.54 343.985L231.116 343.985L231.692 343.985L231.692 340.461L231.692 336.938L231.116 336.938ZM231.596 351.129C231.543 351.076 231.284 351.033 231.02 351.033L230.54 351.033L230.54 354.629L230.54 358.224L231.116 358.224L231.692 358.224L231.692 354.725C231.692 352.8 231.648 351.182 231.596 351.129ZM231.118 365.272L230.54 365.272L230.54 368.876L230.54 372.481L231.08 372.436L231.62 372.392L231.658 368.832L231.697 365.272L231.118 365.272ZM231.116 379.511L230.54 379.511L230.54 383.035L230.54 386.559L231.116 386.559L231.692 386.559L231.692 383.035L231.692 379.511L231.116 379.511ZM231.116 393.607L230.54 393.607L230.54 397.202L230.54 400.798L231.116 400.798L231.692 400.798L231.692 397.202L231.692 393.607L231.116 393.607ZM231.116 407.846L230.535 407.846L230.574 411.405L230.612 414.965L231.116 414.965L231.62 414.965L231.658 411.405L231.697 407.846L231.116 407.846ZM231.116 422.085L230.54 422.085L230.54 425.609L230.54 429.132L231.116 429.132L231.692 429.132L231.692 425.609L231.692 422.085L231.116 422.085ZM231.116 436.324L230.54 436.324L230.54 439.848L230.54 443.372L231.116 443.372L231.692 443.372L231.692 439.848L231.692 436.324L231.116 436.324ZM231.116 450.419L230.54 450.419L230.54 454.015L230.54 457.611L231.116 457.611L231.692 457.611L231.692 454.015L231.692 450.419L231.116 450.419ZM231.116 464.658L230.54 464.658L230.54 468.182L230.54 471.706L231.116 471.706L231.692 471.706L231.692 468.182L231.692 464.658L231.116 464.658ZM231.596 478.85C231.543 478.797 231.284 478.754 231.02 478.754L230.54 478.754L230.54 482.349L230.54 485.945L231.116 485.945L231.692 485.945L231.692 482.445C231.692 480.52 231.648 478.902 231.596 478.85ZM231.598 493.091C231.544 493.037 231.284 492.993 231.02 492.993L230.54 492.993L230.54 496.597L230.54 500.202L231.08 500.157L231.62 500.112L231.658 496.651C231.679 494.747 231.652 493.145 231.598 493.091ZM231.116 507.232L230.535 507.232L230.574 510.792L230.612 514.352L231.116 514.352L231.62 514.352L231.658 510.792L231.697 507.232L231.116 507.232ZM231.116 521.471L230.54 521.471L230.54 524.995L230.54 528.519L231.116 528.519L231.692 528.519L231.692 524.995L231.692 521.471L231.116 521.471ZM231.116 535.566L230.54 535.566L230.54 539.162L230.54 542.758L231.116 542.758L231.692 542.758L231.692 539.162L231.692 535.566L231.116 535.566ZM231.118 549.806L230.54 549.806L230.54 553.41L230.54 557.014L231.08 556.97L231.62 556.925L231.658 553.365L231.697 549.806L231.118 549.806ZM231.116 564.045L230.54 564.045L230.54 567.569L230.54 571.092L231.116 571.092L231.692 571.092L231.692 567.569L231.692 564.045L231.116 564.045ZM231.122 573.537L230.54 573.537L230.54 574.769L230.54 576L231.08 575.955L231.62 575.911L231.661 574.724L231.703 573.537L231.122 573.537ZM223.705 25.1149L220.18 25.1149L220.18 25.6902L220.18 26.2655L223.705 26.2655L227.231 26.2655L227.231 25.6902L227.231 25.1149L223.705 25.1149ZM223.705 89.1191L220.18 89.1191L220.18 89.7663L220.18 90.4135L223.705 90.4135L227.231 90.4135L227.231 89.7663L227.231 89.1191L223.705 89.1191ZM223.705 155.425L220.18 155.425L220.18 156L220.18 156.575L223.705 156.575L227.231 156.575L227.231 156L227.231 155.425L223.705 155.425ZM223.705 219.429L220.18 219.429L220.18 220.004L220.18 220.579L223.705 220.579L227.231 220.579L227.231 220.004L227.231 219.429L223.705 219.429ZM223.705 282.714L220.18 282.714L220.18 283.289L220.18 283.864L223.705 283.864L227.231 283.864L227.231 283.289L227.231 282.714L223.705 282.714ZM223.705 346.43L220.18 346.43L220.18 347.006L220.18 347.581L223.705 347.581L227.231 347.581L227.231 347.006L227.231 346.43L223.705 346.43ZM223.705 410.003L220.18 410.003L220.18 410.578L220.18 411.154L223.705 411.154L227.231 411.154L227.231 410.578L227.231 410.003L223.705 410.003ZM223.705 474.439L220.18 474.439L220.18 475.014L220.18 475.589L223.705 475.589L227.231 475.589L227.231 475.014L227.231 474.439L223.705 474.439ZM223.705 538.443L220.18 538.443L220.18 539.018L220.18 539.594L223.705 539.594L227.231 539.594L227.231 539.018L227.231 538.443L223.705 538.443ZM213.033 25.2108C212.98 25.158 211.361 25.1149 209.435 25.1149L205.934 25.1149L205.934 25.6902L205.934 26.2655L209.531 26.2655L213.129 26.2655L213.129 25.7861C213.129 25.5223 213.086 25.2634 213.033 25.2108ZM213.04 89.2218C212.983 89.1652 211.361 89.1191 209.435 89.1191L205.934 89.1191L205.934 89.7688L205.934 90.4186L209.495 90.38L213.057 90.3416L213.1 89.833C213.123 89.5534 213.096 89.2783 213.04 89.2218ZM213.033 155.52C212.98 155.468 211.361 155.425 209.435 155.425L205.934 155.425L205.934 156L205.934 156.575L209.531 156.575L213.129 156.575L213.129 156.096C213.129 155.832 213.086 155.573 213.033 155.52ZM213.033 219.525C212.98 219.472 211.361 219.429 209.435 219.429L205.934 219.429L205.934 220.004L205.934 220.579L209.531 220.579L213.129 220.579L213.129 220.1C213.129 219.836 213.086 219.577 213.033 219.525ZM213.04 282.817C212.983 282.76 211.361 282.714 209.435 282.714L205.934 282.714L205.934 283.292L205.934 283.869L209.495 283.831L213.057 283.793L213.1 283.356C213.123 283.116 213.096 282.873 213.04 282.817ZM209.54 346.43L205.934 346.43L205.934 347.008L205.934 347.586L209.495 347.548L213.057 347.509L213.101 346.97L213.146 346.43L209.54 346.43ZM213.033 410.099C212.98 410.046 211.361 410.003 209.435 410.003L205.934 410.003L205.934 410.578L205.934 411.154L209.531 411.154L213.129 411.154L213.129 410.674C213.129 410.411 213.086 410.152 213.033 410.099ZM209.54 474.439L205.934 474.439L205.934 475.017L205.934 475.594L209.495 475.556L213.057 475.518L213.101 474.978L213.146 474.439L209.54 474.439ZM213.033 538.539C212.98 538.486 211.361 538.443 209.435 538.443L205.934 538.443L205.934 539.018L205.934 539.594L209.531 539.594L213.129 539.594L213.129 539.114C213.129 538.85 213.086 538.592 213.033 538.539ZM195.286 25.1149L191.688 25.1149L191.688 25.6902L191.688 26.2655L195.286 26.2655L198.883 26.2655L198.883 25.6902L198.883 25.1149L195.286 25.1149ZM195.33 89.1524L191.76 89.191L191.76 89.7663L191.76 90.3416L195.286 90.3416L198.811 90.3416L198.855 89.7278L198.9 89.114L195.33 89.1524ZM195.322 155.458L191.76 155.496L191.716 156.036L191.671 156.575L195.277 156.575L198.883 156.575L198.883 155.997L198.883 155.42L195.322 155.458ZM198.7 219.493C198.6 219.455 196.997 219.441 195.139 219.462L191.76 219.501L191.716 220.04L191.671 220.579L195.277 220.579L198.883 220.579L198.883 220.072C198.883 219.792 198.801 219.532 198.7 219.493ZM195.322 282.747L191.76 282.786L191.716 283.325L191.671 283.864L195.277 283.864L198.883 283.864L198.883 283.287L198.883 282.709L195.322 282.747ZM195.277 346.43L191.671 346.43L191.716 346.97L191.76 347.509L195.322 347.548L198.883 347.586L198.883 347.008L198.883 346.43L195.277 346.43ZM195.322 410.037L191.76 410.075L191.715 410.614L191.671 411.154L195.277 411.154L198.883 411.154L198.883 410.576L198.883 409.998L195.322 410.037ZM195.286 474.439L191.688 474.439L191.688 475.014L191.688 475.589L195.286 475.589L198.883 475.589L198.883 475.014L198.883 474.439L195.286 474.439ZM195.322 538.477L191.76 538.515L191.715 539.054L191.671 539.594L195.277 539.594L198.883 539.594L198.883 539.016L198.883 538.438L195.322 538.477ZM181.112 25.1149L177.586 25.1149L177.586 25.6902L177.586 26.2655L181.112 26.2655L184.637 26.2655L184.637 25.6902L184.637 25.1149L181.112 25.1149ZM181.12 89.1191L177.586 89.1191L177.586 89.7689L177.586 90.4187L181.076 90.3802L184.565 90.3416L184.609 89.7303L184.654 89.1191L181.12 89.1191ZM181.112 155.425L177.586 155.425L177.586 156L177.586 156.575L181.112 156.575L184.637 156.575L184.637 156L184.637 155.425L181.112 155.425ZM184.541 219.525C184.489 219.472 182.902 219.429 181.016 219.429L177.586 219.429L177.586 220.004L177.586 220.579L181.112 220.579L184.637 220.579L184.637 220.1C184.637 219.836 184.594 219.577 184.541 219.525ZM181.112 282.714L177.586 282.714L177.586 283.289L177.586 283.864L181.112 283.864L184.637 283.864L184.637 283.289L184.637 282.714L181.112 282.714ZM181.112 346.43L177.586 346.43L177.586 347.006L177.586 347.581L181.112 347.581L184.637 347.581L184.637 347.006L184.637 346.43L181.112 346.43ZM181.112 410.003L177.586 410.003L177.586 410.578L177.586 411.154L181.112 411.154L184.637 411.154L184.637 410.578L184.637 410.003L181.112 410.003ZM181.112 474.439L177.586 474.439L177.586 475.014L177.586 475.589L181.112 475.589L184.637 475.589L184.637 475.014L184.637 474.439L181.112 474.439ZM181.112 538.443L177.586 538.443L177.586 539.018L177.586 539.594L181.112 539.594L184.637 539.594L184.637 539.018L184.637 538.443L181.112 538.443ZM166.866 25.1149L163.34 25.1149L163.34 25.6902L163.34 26.2655L166.866 26.2655L170.391 26.2655L170.391 25.6902L170.391 25.1149L166.866 25.1149ZM169.024 89.1191L167.657 89.1191L167.657 87.7527L167.657 86.3863L167.082 86.3863L166.506 86.3863L166.506 87.7527L166.506 89.1191L164.915 89.1191L163.324 89.1191L163.368 89.7303L163.412 90.3416L164.959 90.3825L166.506 90.4233L166.506 91.9286L166.506 93.434L167.082 93.434L167.657 93.434L167.657 91.9237L167.657 90.4135L169.024 90.4135L170.391 90.4135L170.391 89.7663L170.391 89.1191L169.024 89.1191ZM169.024 155.425L167.657 155.425L167.657 153.842L167.657 152.26L167.082 152.26L166.506 152.26L166.506 153.842L166.506 155.425L164.923 155.425L163.34 155.425L163.34 156L163.34 156.575L164.923 156.575L166.506 156.575L166.506 158.013L166.506 159.452L167.082 159.452L167.657 159.452L167.657 158.013L167.657 156.575L169.024 156.575L170.391 156.575L170.391 156L170.391 155.425L169.024 155.425ZM166.902 219.462L163.412 219.501L163.368 220.04L163.323 220.579L166.857 220.579L170.391 220.579L170.391 220.002L170.391 219.424L166.902 219.462ZM169.024 282.714L167.657 282.714L167.657 281.419L167.657 280.125L167.082 280.125L166.506 280.125L166.506 281.419L166.506 282.714L164.923 282.714L163.34 282.714L163.34 283.284L163.34 283.855L164.887 283.896L166.434 283.936L166.475 285.554L166.516 287.173L167.087 287.173L167.657 287.173L167.657 285.519L167.657 283.864L169.024 283.864L170.391 283.864L170.391 283.289L170.391 282.714L169.024 282.714ZM166.866 346.43L163.34 346.43L163.34 347.006L163.34 347.581L166.866 347.581L170.391 347.581L170.391 347.006L170.391 346.43L166.866 346.43ZM169.024 410.003L167.657 410.003L167.657 408.924L167.657 407.846L167.082 407.846L166.506 407.846L166.506 408.924L166.506 410.003L164.923 410.003L163.34 410.003L163.34 410.574L163.34 411.144L164.887 411.185L166.434 411.226L166.474 413.14L166.515 415.054L167.05 415.01L167.585 414.965L167.626 413.059L167.666 411.154L169.029 411.154L170.391 411.154L170.391 410.578L170.391 410.003L169.024 410.003ZM166.866 474.439L163.34 474.439L163.34 475.014L163.34 475.589L166.866 475.589L170.391 475.589L170.391 475.014L170.391 474.439L166.866 474.439ZM169.024 538.443L167.657 538.443L167.657 537.005L167.657 535.566L167.082 535.566L166.506 535.566L166.506 537.005L166.506 538.443L164.923 538.443L163.34 538.443L163.34 539.013L163.34 539.584L164.887 539.625L166.434 539.666L166.475 541.212L166.516 542.758L167.087 542.758L167.657 542.758L167.657 541.176L167.657 539.594L169.024 539.594L170.391 539.594L170.391 539.018L170.391 538.443L169.024 538.443ZM167.082 -13L166.506 -13L166.506 -9.47618L166.506 -5.95236L167.082 -5.95236L167.657 -5.95236L167.657 -9.47618L167.657 -13L167.082 -13ZM167.082 1.23913L166.506 1.23913L166.506 4.76296L166.506 8.28678L167.082 8.28678L167.657 8.28678L167.657 4.76296L167.657 1.23913L167.082 1.23913ZM167.082 15.3344L166.506 15.3344L166.506 18.9302L166.506 22.5259L167.082 22.5259L167.657 22.5259L167.657 18.9302L167.657 15.3344L167.082 15.3344ZM167.082 29.5736L166.506 29.5736L166.506 33.0974L166.506 36.6212L167.082 36.6212L167.657 36.6212L167.657 33.0974L167.657 29.5736L167.082 29.5736ZM167.082 43.8127L166.506 43.8127L166.506 47.3365L166.506 50.8604L167.082 50.8604L167.657 50.8604L167.657 47.3365L167.657 43.8127L167.082 43.8127ZM167.082 57.908L166.506 57.908L166.506 61.5038L166.506 65.0995L167.082 65.0995L167.657 65.0995L167.657 61.5038L167.657 57.908L167.082 57.908ZM167.084 72.1472L166.506 72.1472L166.506 75.7515L166.506 79.356L167.046 79.3113L167.585 79.2667L167.624 75.707L167.662 72.1472L167.084 72.1472ZM167.082 100.482L166.506 100.482L166.506 104.077L166.506 107.673L167.082 107.673L167.657 107.673L167.657 104.077L167.657 100.482L167.082 100.482ZM167.082 114.721L166.506 114.721L166.506 118.316L166.506 121.912L167.082 121.912L167.657 121.912L167.657 118.316L167.657 114.721L167.082 114.721ZM167.084 124.214L166.506 124.214L166.506 127.674L166.506 131.135L167.046 131.09L167.585 131.045L167.624 127.629L167.663 124.214L167.084 124.214ZM167.082 138.165L166.506 138.165L166.506 141.689L166.506 145.213L167.082 145.213L167.657 145.213L167.657 141.689L167.657 138.165L167.082 138.165ZM167.084 166.499L166.506 166.499L166.506 170.104L166.506 173.708L167.046 173.664L167.585 173.619L167.624 170.059L167.662 166.499L167.084 166.499ZM167.082 180.739L166.506 180.739L166.506 184.262L166.506 187.786L167.082 187.786L167.657 187.786L167.657 184.262L167.657 180.739L167.082 180.739ZM167.561 194.93C167.509 194.877 167.25 194.834 166.986 194.834L166.506 194.834L166.506 198.43L166.506 202.025L167.082 202.025L167.657 202.025L167.657 198.526C167.657 196.601 167.614 194.982 167.561 194.93ZM167.082 209.073L166.506 209.073L166.506 212.669L166.506 216.265L167.082 216.265L167.657 216.265L167.657 212.669L167.657 209.073L167.082 209.073ZM167.082 223.312L166.506 223.312L166.506 226.836L166.506 230.36L167.082 230.36L167.657 230.36L167.657 226.836L167.657 223.312L167.082 223.312ZM167.561 237.503C167.509 237.451 167.25 237.407 166.986 237.407L166.506 237.407L166.506 241.003L166.506 244.599L167.082 244.599L167.657 244.599L167.657 241.099C167.657 239.174 167.614 237.556 167.561 237.503ZM167.082 251.647L166.506 251.647L166.506 255.242L166.506 258.838L167.082 258.838L167.657 258.838L167.657 255.242L167.657 251.647L167.082 251.647ZM167.082 265.886L166.506 265.886L166.506 269.481L166.506 273.077L167.082 273.077L167.657 273.077L167.657 269.481L167.657 265.886L167.082 265.886ZM167.082 294.364L166.506 294.364L166.506 297.888L166.506 301.412L167.082 301.412L167.657 301.412L167.657 297.888L167.657 294.364L167.082 294.364ZM167.082 308.459L166.506 308.459L166.506 312.055L166.506 315.651L167.082 315.651L167.657 315.651L167.657 312.055L167.657 308.459L167.082 308.459ZM167.082 322.698L166.506 322.698L166.506 326.222L166.506 329.746L167.082 329.746L167.657 329.746L167.657 326.222L167.657 322.698L167.082 322.698ZM167.082 336.938L166.506 336.938L166.506 340.461L166.506 343.985L167.082 343.985L167.657 343.985L167.657 340.461L167.657 336.938L167.082 336.938ZM167.082 351.033L166.506 351.033L166.506 354.629L166.506 358.224L167.082 358.224L167.657 358.224L167.657 354.629L167.657 351.033L167.082 351.033ZM167.082 365.272L166.506 365.272L166.506 368.868L166.506 372.464L167.082 372.464L167.657 372.464L167.657 368.868L167.657 365.272L167.082 365.272ZM167.082 379.511L166.506 379.511L166.506 383.035L166.506 386.559L167.082 386.559L167.657 386.559L167.657 383.035L167.657 379.511L167.082 379.511ZM167.082 393.607L166.506 393.607L166.506 397.202L166.506 400.798L167.082 400.798L167.657 400.798L167.657 397.202L167.657 393.607L167.082 393.607ZM167.082 422.085L166.506 422.085L166.506 425.609L166.506 429.132L167.082 429.132L167.657 429.132L167.657 425.609L167.657 422.085L167.082 422.085ZM167.082 436.324L166.506 436.324L166.506 439.848L166.506 443.372L167.082 443.372L167.657 443.372L167.657 439.848L167.657 436.324L167.082 436.324ZM167.082 450.419L166.506 450.419L166.506 454.015L166.506 457.611L167.082 457.611L167.657 457.611L167.657 454.015L167.657 450.419L167.082 450.419ZM167.082 464.658L166.506 464.658L166.506 468.182L166.506 471.706L167.082 471.706L167.657 471.706L167.657 468.182L167.657 464.658L167.082 464.658ZM167.561 478.85C167.509 478.797 167.25 478.754 166.986 478.754L166.506 478.754L166.506 482.349L166.506 485.945L167.082 485.945L167.657 485.945L167.657 482.445C167.657 480.52 167.614 478.902 167.561 478.85ZM167.082 492.993L166.506 492.993L166.506 496.589L166.506 500.184L167.082 500.184L167.657 500.184L167.657 496.589L167.657 492.993L167.082 492.993ZM167.084 507.232L166.506 507.232L166.506 510.836L166.506 514.441L167.046 514.396L167.585 514.352L167.624 510.792L167.662 507.232L167.084 507.232ZM167.082 521.471L166.506 521.471L166.506 524.995L166.506 528.519L167.082 528.519L167.657 528.519L167.657 524.995L167.657 521.471L167.082 521.471ZM167.082 549.806L166.506 549.806L166.506 553.401L166.506 556.997L167.082 556.997L167.657 556.997L167.657 553.401L167.657 549.806L167.082 549.806ZM167.082 564.045L166.506 564.045L166.506 567.569L166.506 571.092L167.082 571.092L167.657 571.092L167.657 567.569L167.657 564.045L167.082 564.045ZM167.088 573.537L166.506 573.537L166.506 574.769L166.506 576L167.046 575.955L167.585 575.911L167.627 574.724L167.669 573.537L167.088 573.537ZM152.692 25.1149L149.095 25.1149L149.095 25.6902L149.095 26.2655L152.692 26.2655L156.29 26.2655L156.29 25.6902L156.29 25.1149L152.692 25.1149ZM156.2 89.2218C156.144 89.1652 154.518 89.1191 152.588 89.1191L149.078 89.1191L149.122 89.7303L149.167 90.3416L152.692 90.3416L156.218 90.3416L156.26 89.833C156.284 89.5534 156.257 89.2783 156.2 89.2218ZM156.194 155.52C156.141 155.468 154.522 155.425 152.596 155.425L149.095 155.425L149.095 156L149.095 156.575L152.692 156.575L156.29 156.575L156.29 156.096C156.29 155.832 156.246 155.573 156.194 155.52ZM156.107 219.493C156.006 219.455 154.403 219.441 152.545 219.462L149.167 219.501L149.122 220.04L149.077 220.579L152.683 220.579L156.29 220.579L156.29 220.072C156.29 219.792 156.207 219.532 156.107 219.493ZM156.194 282.81C156.141 282.757 154.522 282.714 152.596 282.714L149.095 282.714L149.095 283.289L149.095 283.864L152.692 283.864L156.29 283.864L156.29 283.385C156.29 283.121 156.246 282.862 156.194 282.81ZM152.701 346.43L149.095 346.43L149.095 347.008L149.095 347.586L152.656 347.548L156.218 347.509L156.262 346.97L156.307 346.43L152.701 346.43ZM152.692 410.003L149.095 410.003L149.095 410.578L149.095 411.154L152.692 411.154L156.29 411.154L156.29 410.578L156.29 410.003L152.692 410.003ZM152.692 474.439L149.095 474.439L149.095 475.014L149.095 475.589L152.692 475.589L156.29 475.589L156.29 475.014L156.29 474.439L152.692 474.439ZM156.194 538.539C156.141 538.486 154.522 538.443 152.596 538.443L149.095 538.443L149.095 539.018L149.095 539.594L152.692 539.594L156.29 539.594L156.29 539.114C156.29 538.85 156.246 538.592 156.194 538.539ZM138.482 25.1484L134.921 25.1868L134.876 25.7261L134.831 26.2655L138.438 26.2655L142.044 26.2655L142.044 25.6877L142.044 25.1098L138.482 25.1484ZM138.482 89.1526L134.921 89.191L134.921 89.7663L134.921 90.3416L138.482 90.38L142.044 90.4186L142.044 89.7663L142.044 89.114L138.482 89.1526ZM138.482 155.458L134.921 155.496L134.876 156.036L134.831 156.575L138.438 156.575L142.044 156.575L142.044 155.997L142.044 155.42L138.482 155.458ZM138.482 219.462L134.921 219.501L134.876 220.04L134.831 220.579L138.438 220.579L142.044 220.579L142.044 220.002L142.044 219.424L138.482 219.462ZM138.482 282.747L134.921 282.786L134.921 283.289L134.921 283.793L138.482 283.831L142.044 283.869L142.044 283.289L142.044 282.709L138.482 282.747ZM138.438 346.43L134.831 346.43L134.876 346.97L134.921 347.509L138.482 347.548L142.044 347.586L142.044 347.008L142.044 346.43L138.438 346.43ZM138.482 410.037L134.921 410.075L134.876 410.614L134.831 411.154L138.438 411.154L142.044 411.154L142.044 410.576L142.044 409.998L138.482 410.037ZM138.438 474.439L134.831 474.439L134.876 474.978L134.921 475.518L138.482 475.556L142.044 475.594L142.044 475.017L142.044 474.439L138.438 474.439ZM138.482 538.477L134.921 538.515L134.876 539.054L134.831 539.594L138.438 539.594L142.044 539.594L142.044 539.016L142.044 538.438L138.482 538.477ZM129.309 25.1149L125.783 25.1149L125.783 25.6902L125.783 26.2655L129.309 26.2655L132.834 26.2655L132.834 25.6902L132.834 25.1149L129.309 25.1149ZM129.309 89.1191L125.783 89.1191L125.783 89.7663L125.783 90.4135L129.309 90.4135L132.834 90.4135L132.834 89.7663L132.834 89.1191L129.309 89.1191ZM129.309 155.425L125.783 155.425L125.783 156L125.783 156.575L129.309 156.575L132.834 156.575L132.834 156L132.834 155.425L129.309 155.425ZM129.309 219.429L125.783 219.429L125.783 220.004L125.783 220.579L129.309 220.579L132.834 220.579L132.834 220.004L132.834 219.429L129.309 219.429ZM129.309 282.714L125.783 282.714L125.783 283.289L125.783 283.864L129.309 283.864L132.834 283.864L132.834 283.289L132.834 282.714L129.309 282.714ZM129.309 346.43L125.783 346.43L125.783 347.006L125.783 347.581L129.309 347.581L132.834 347.581L132.834 347.006L132.834 346.43L129.309 346.43ZM129.309 410.003L125.783 410.003L125.783 410.578L125.783 411.154L129.309 411.154L132.834 411.154L132.834 410.578L132.834 410.003L129.309 410.003ZM129.309 474.439L125.783 474.439L125.783 475.014L125.783 475.589L129.309 475.589L132.834 475.589L132.834 475.014L132.834 474.439L129.309 474.439ZM129.309 538.443L125.783 538.443L125.783 539.018L125.783 539.594L129.309 539.594L132.834 539.594L132.834 539.018L132.834 538.443L129.309 538.443ZM115.063 25.1149L111.538 25.1149L111.538 25.6902L111.538 26.2655L115.063 26.2655L118.589 26.2655L118.589 25.6902L118.589 25.1149L115.063 25.1149ZM115.063 89.1191L111.538 89.1191L111.538 89.7663L111.538 90.4135L115.063 90.4135L118.589 90.4135L118.589 89.7663L118.589 89.1191L115.063 89.1191ZM115.063 155.425L111.538 155.425L111.538 156L111.538 156.575L115.063 156.575L118.589 156.575L118.589 156L118.589 155.425L115.063 155.425ZM115.063 219.429L111.538 219.429L111.538 220.004L111.538 220.579L115.063 220.579L118.589 220.579L118.589 220.004L118.589 219.429L115.063 219.429ZM115.063 282.714L111.538 282.714L111.538 283.289L111.538 283.864L115.063 283.864L118.589 283.864L118.589 283.289L118.589 282.714L115.063 282.714ZM115.063 346.43L111.538 346.43L111.538 347.006L111.538 347.581L115.063 347.581L118.589 347.581L118.589 347.006L118.589 346.43L115.063 346.43ZM115.063 410.003L111.538 410.003L111.538 410.578L111.538 411.154L115.063 411.154L118.589 411.154L118.589 410.578L118.589 410.003L115.063 410.003ZM115.063 474.439L111.538 474.439L111.538 475.014L111.538 475.589L115.063 475.589L118.589 475.589L118.589 475.014L118.589 474.439L115.063 474.439ZM115.063 538.443L111.538 538.443L111.538 539.018L111.538 539.594L115.063 539.594L118.589 539.594L118.589 539.018L118.589 538.443L115.063 538.443ZM100.889 25.1149L97.2918 25.1149L97.2918 25.6902L97.2918 26.2655L100.889 26.2655L104.487 26.2655L104.487 25.6902L104.487 25.1149L100.889 25.1149ZM104.398 89.2218C104.341 89.1652 103.626 89.1191 102.808 89.1191L101.321 89.1191L101.321 87.7527L101.321 86.3863L100.745 86.3863L100.17 86.3863L100.17 87.7475L100.17 89.1087L98.7667 89.1498L97.3637 89.191L97.3637 89.7663L97.3637 90.3416L98.7667 90.3828L100.17 90.4239L100.17 91.9289L100.17 93.434L100.745 93.434L101.321 93.434L101.321 91.9286L101.321 90.4233L102.868 90.3825L104.415 90.3416L104.458 89.833C104.481 89.5534 104.454 89.2783 104.398 89.2218ZM102.909 155.425L101.331 155.425L101.29 153.878L101.249 152.332L100.709 152.288L100.17 152.243L100.17 153.834L100.17 155.425L98.7308 155.425L97.2918 155.425L97.2918 156L97.2918 156.575L98.7308 156.575L100.17 156.575L100.17 158.013L100.17 159.452L100.745 159.452L101.321 159.452L101.321 158.013L101.321 156.575L102.904 156.575L104.487 156.575L104.487 156L104.487 155.425L102.909 155.425ZM104.304 219.493C104.203 219.455 102.601 219.441 100.742 219.462L97.3637 219.501L97.3191 220.04L97.2744 220.579L100.881 220.579L104.487 220.579L104.487 220.072C104.487 219.792 104.404 219.532 104.304 219.493ZM102.904 282.714L101.321 282.714L101.321 281.419L101.321 280.125L100.745 280.125L100.17 280.125L100.17 281.414L100.17 282.703L98.7667 282.745L97.3637 282.786L97.3194 283.32L97.2751 283.854L98.6864 283.895L100.098 283.936L100.138 285.554L100.179 287.173L100.75 287.173L101.321 287.173L101.321 285.519L101.321 283.864L102.904 283.864L104.487 283.864L104.487 283.289L104.487 282.714L102.904 282.714ZM100.889 346.43L97.2918 346.43L97.2918 347.006L97.2918 347.581L100.889 347.581L104.487 347.581L104.487 347.006L104.487 346.43L100.889 346.43ZM102.904 410.003L101.321 410.003L101.321 408.924L101.321 407.846L100.745 407.846L100.17 407.846L100.17 408.924L100.17 410.003L98.7307 410.003L97.2918 410.003L97.2918 410.573L97.2918 411.143L98.6948 411.185L100.098 411.226L100.17 413.095L100.242 414.965L100.745 414.965L101.249 414.965L101.289 413.059L101.329 411.154L102.908 411.154L104.487 411.154L104.487 410.578L104.487 410.003L102.904 410.003ZM100.889 474.439L97.2918 474.439L97.2918 475.014L97.2918 475.589L100.889 475.589L104.487 475.589L104.487 475.014L104.487 474.439L100.889 474.439ZM102.904 538.443L101.321 538.443L101.321 537.005L101.321 535.566L100.745 535.566L100.17 535.566L100.17 537L100.17 538.433L98.7667 538.474L97.3637 538.515L97.3191 539.054L97.2743 539.594L98.7221 539.594L100.17 539.594L100.17 541.176L100.17 542.758L100.745 542.758L101.321 542.758L101.321 541.176L101.321 539.594L102.904 539.594L104.487 539.594L104.487 539.018L104.487 538.443L102.904 538.443ZM100.745 -13L100.17 -13L100.17 -9.47619L100.17 -5.95236L100.745 -5.95236L101.321 -5.95236L101.321 -9.47619L101.321 -13L100.745 -13ZM100.745 1.23913L100.17 1.23913L100.17 4.76295L100.17 8.28678L100.745 8.28678L101.321 8.28678L101.321 4.76295L101.321 1.23913L100.745 1.23913ZM100.748 15.3344L100.17 15.3344L100.17 18.9388L100.17 22.5433L100.709 22.4986L101.249 22.454L101.287 18.8942L101.326 15.3344L100.748 15.3344ZM100.745 29.5736L100.17 29.5736L100.17 33.0974L100.17 36.6212L100.745 36.6212L101.321 36.6212L101.321 33.0974L101.321 29.5736L100.745 29.5736ZM100.745 43.8127L100.17 43.8127L100.17 47.3365L100.17 50.8604L100.745 50.8604L101.321 50.8604L101.321 47.3365L101.321 43.8127L100.745 43.8127ZM101.225 58.004C101.172 57.9512 100.913 57.908 100.649 57.908L100.17 57.908L100.17 61.5038L100.17 65.0995L100.745 65.0995L101.321 65.0995L101.321 61.5997C101.321 59.6747 101.278 58.0566 101.225 58.004ZM100.745 72.1472L100.165 72.1472L100.203 75.7069L100.242 79.2667L100.745 79.2667L101.249 79.2667L101.287 75.7069L101.326 72.1472L100.745 72.1472ZM101.225 100.578C101.172 100.525 100.913 100.482 100.649 100.482L100.17 100.482L100.17 104.077L100.17 107.673L100.745 107.673L101.321 107.673L101.321 104.173C101.321 102.248 101.278 100.63 101.225 100.578ZM100.748 114.721L100.17 114.721L100.17 118.325L100.17 121.93L100.709 121.885L101.249 121.84L101.287 118.281L101.326 114.721L100.748 114.721ZM100.748 124.214L100.17 124.214L100.17 127.674L100.17 131.135L100.709 131.09L101.249 131.045L101.288 127.629L101.326 124.214L100.748 124.214ZM100.745 138.165L100.17 138.165L100.17 141.689L100.17 145.213L100.745 145.213L101.321 145.213L101.321 141.689L101.321 138.165L100.745 138.165ZM100.748 166.499L100.17 166.499L100.17 170.104L100.17 173.708L100.709 173.664L101.249 173.619L101.287 170.059L101.326 166.499L100.748 166.499ZM100.745 180.739L100.17 180.739L100.17 184.262L100.17 187.786L100.745 187.786L101.321 187.786L101.321 184.262L101.321 180.739L100.745 180.739ZM101.225 194.93C101.172 194.877 100.913 194.834 100.649 194.834L100.17 194.834L100.17 198.43L100.17 202.025L100.745 202.025L101.321 202.025L101.321 198.526C101.321 196.601 101.278 194.982 101.225 194.93ZM100.745 209.073L100.17 209.073L100.17 212.669L100.17 216.265L100.745 216.265L101.321 216.265L101.321 212.669L101.321 209.073L100.745 209.073ZM100.745 223.312L100.17 223.312L100.17 226.836L100.17 230.36L100.745 230.36L101.321 230.36L101.321 226.836L101.321 223.312L100.745 223.312ZM101.116 237.464C101.003 237.42 100.76 237.406 100.576 237.432L100.242 237.479L100.203 241.039L100.165 244.599L100.743 244.599L101.321 244.599L101.321 241.071C101.321 238.147 101.286 237.529 101.116 237.464ZM101.225 251.743C101.172 251.69 100.913 251.647 100.649 251.647L100.17 251.647L100.17 255.242L100.17 258.838L100.745 258.838L101.321 258.838L101.321 255.338C101.321 253.413 101.278 251.795 101.225 251.743ZM100.748 265.886L100.17 265.886L100.17 269.49L100.17 273.095L100.709 273.05L101.249 273.005L101.287 269.446L101.326 265.886L100.748 265.886ZM100.745 294.364L100.17 294.364L100.17 297.888L100.17 301.412L100.745 301.412L101.321 301.412L101.321 297.888L101.321 294.364L100.745 294.364ZM100.745 308.459L100.17 308.459L100.17 312.055L100.17 315.651L100.745 315.651L101.321 315.651L101.321 312.055L101.321 308.459L100.745 308.459ZM100.745 322.698L100.17 322.698L100.17 326.222L100.17 329.746L100.745 329.746L101.321 329.746L101.321 326.222L101.321 322.698L100.745 322.698ZM100.745 336.938L100.17 336.938L100.17 340.461L100.17 343.985L100.745 343.985L101.321 343.985L101.321 340.461L101.321 336.938L100.745 336.938ZM101.225 351.129C101.172 351.076 100.913 351.033 100.649 351.033L100.17 351.033L100.17 354.629L100.17 358.224L100.745 358.224L101.321 358.224L101.321 354.725C101.321 352.8 101.278 351.182 101.225 351.129ZM100.748 365.272L100.17 365.272L100.17 368.876L100.17 372.481L100.709 372.436L101.249 372.392L101.287 368.832L101.326 365.272L100.748 365.272ZM100.745 379.511L100.17 379.511L100.17 383.035L100.17 386.559L100.745 386.559L101.321 386.559L101.321 383.035L101.321 379.511L100.745 379.511ZM100.745 393.607L100.17 393.607L100.17 397.202L100.17 400.798L100.745 400.798L101.321 400.798L101.321 397.202L101.321 393.607L100.745 393.607ZM100.745 422.085L100.17 422.085L100.17 425.609L100.17 429.132L100.745 429.132L101.321 429.132L101.321 425.609L101.321 422.085L100.745 422.085ZM100.745 436.324L100.17 436.324L100.17 439.848L100.17 443.372L100.745 443.372L101.321 443.372L101.321 439.848L101.321 436.324L100.745 436.324ZM100.745 450.419L100.17 450.419L100.17 454.015L100.17 457.611L100.745 457.611L101.321 457.611L101.321 454.015L101.321 450.419L100.745 450.419ZM100.745 464.658L100.17 464.658L100.17 468.182L100.17 471.706L100.745 471.706L101.321 471.706L101.321 468.182L101.321 464.658L100.745 464.658ZM101.225 478.85C101.172 478.797 100.913 478.754 100.649 478.754L100.17 478.754L100.17 482.349L100.17 485.945L100.745 485.945L101.321 485.945L101.321 482.445C101.321 480.52 101.278 478.902 101.225 478.85ZM101.227 493.091C101.173 493.037 100.913 492.993 100.649 492.993L100.17 492.993L100.17 496.597L100.17 500.202L100.709 500.157L101.249 500.112L101.287 496.651C101.309 494.747 101.282 493.145 101.227 493.091ZM100.745 507.232L100.165 507.232L100.203 510.792L100.242 514.352L100.745 514.352L101.249 514.352L101.287 510.792L101.326 507.232L100.745 507.232ZM100.745 521.471L100.17 521.471L100.17 524.995L100.17 528.519L100.745 528.519L101.321 528.519L101.321 524.995L101.321 521.471L100.745 521.471ZM100.748 549.806L100.17 549.806L100.17 553.41L100.17 557.014L100.709 556.97L101.249 556.925L101.287 553.365L101.326 549.806L100.748 549.806ZM100.745 564.045L100.17 564.045L100.17 567.569L100.17 571.092L100.745 571.092L101.321 571.092L101.321 567.569L101.321 564.045L100.745 564.045ZM100.751 573.537L100.17 573.537L100.17 574.769L100.17 576L100.709 575.955L101.249 575.911L101.291 574.724L101.333 573.537L100.751 573.537ZM86.6794 25.1484L83.1179 25.1868L83.0733 25.7261L83.0286 26.2655L86.6348 26.2655L90.2408 26.2655L90.2408 25.6877L90.2408 25.1098L86.6794 25.1484ZM90.0667 89.1871C89.9614 89.1467 88.3548 89.131 86.4965 89.1523L83.1179 89.191L83.1179 89.7663L83.1179 90.3416L86.6434 90.3416L90.1689 90.3416L90.2136 89.8011C90.2427 89.4496 90.1913 89.2349 90.0667 89.1871ZM86.6794 155.458L83.1179 155.496L83.0733 156.036L83.0286 156.575L86.6348 156.575L90.2408 156.575L90.2408 155.997L90.2408 155.42L86.6794 155.458ZM90.0579 219.493C89.9574 219.455 88.3548 219.441 86.4965 219.462L83.1179 219.501L83.0733 220.04L83.0286 220.579L86.6348 220.579L90.2408 220.579L90.2408 220.072C90.2408 219.792 90.1585 219.532 90.0579 219.493ZM86.6794 282.747L83.1179 282.786L83.0733 283.325L83.0286 283.864L86.6348 283.864L90.2408 283.864L90.2408 283.287L90.2408 282.709L86.6794 282.747ZM86.6348 346.43L83.0286 346.43L83.0733 346.97L83.1179 347.509L86.6794 347.548L90.2408 347.586L90.2408 347.008L90.2408 346.43L86.6348 346.43ZM86.6794 410.037L83.1179 410.075L83.0733 410.614L83.0286 411.154L86.6348 411.154L90.2408 411.154L90.2408 410.576L90.2408 409.998L86.6794 410.037ZM86.6348 474.439L83.0286 474.439L83.0733 474.978L83.1179 475.518L86.6794 475.556L90.2408 475.594L90.2408 475.017L90.2408 474.439L86.6348 474.439ZM86.6794 538.477L83.1179 538.515L83.0733 539.054L83.0285 539.594L86.6348 539.594L90.2408 539.594L90.2408 539.016L90.2408 538.438L86.6794 538.477ZM72.4696 25.1149L68.9441 25.1149L68.9441 25.6902L68.9441 26.2655L72.4696 26.2655L75.995 26.2655L75.995 25.6902L75.995 25.1149L72.4696 25.1149ZM72.4614 89.1191L68.9275 89.1191L68.9719 89.7303L69.016 90.3416L72.5055 90.3802L75.995 90.4187L75.995 89.7689L75.995 89.1191L72.4614 89.1191ZM72.4696 155.425L68.9441 155.425L68.9441 156L68.9441 156.575L72.4696 156.575L75.995 156.575L75.995 156L75.995 155.425L72.4696 155.425ZM72.5055 219.462L69.016 219.501L68.9714 220.04L68.9267 220.579L72.4609 220.579L75.995 220.579L75.995 220.002L75.995 219.424L72.5055 219.462ZM72.4696 282.714L68.9441 282.714L68.9441 283.289L68.9441 283.864L72.4696 283.864L75.995 283.864L75.995 283.289L75.995 282.714L72.4696 282.714ZM72.4696 346.43L68.9441 346.43L68.9441 347.006L68.9441 347.581L72.4696 347.581L75.995 347.581L75.995 347.006L75.995 346.43L72.4696 346.43ZM72.4696 410.003L68.9441 410.003L68.9441 410.578L68.9441 411.154L72.4696 411.154L75.995 411.154L75.995 410.578L75.995 410.003L72.4696 410.003ZM72.4696 474.439L68.9441 474.439L68.9441 475.014L68.9441 475.589L72.4696 475.589L75.995 475.589L75.995 475.014L75.995 474.439L72.4696 474.439ZM72.4695 538.443L68.9441 538.443L68.9441 539.018L68.9441 539.594L72.4695 539.594L75.995 539.594L75.995 539.018L75.995 538.443L72.4695 538.443ZM61.7972 25.2108C61.7445 25.158 60.1257 25.1149 58.1997 25.1149L54.6983 25.1149L54.6983 25.6902L54.6983 26.2655L58.2957 26.2655L61.8931 26.2655L61.8931 25.7861C61.8931 25.5223 61.85 25.2634 61.7972 25.2108ZM61.8041 89.2218C61.7475 89.1652 60.1257 89.1191 58.1997 89.1191L54.6983 89.1191L54.6983 89.7687L54.6983 90.4186L58.2597 90.38L61.8212 90.3416L61.8641 89.833C61.8875 89.5534 61.8606 89.2783 61.8041 89.2218ZM61.7972 155.52C61.7445 155.468 60.1257 155.425 58.1997 155.425L54.6983 155.425L54.6983 156L54.6983 156.575L58.2957 156.575L61.8931 156.575L61.8931 156.096C61.8931 155.832 61.85 155.573 61.7972 155.52ZM61.7972 219.525C61.7445 219.472 60.1257 219.429 58.1997 219.429L54.6983 219.429L54.6983 220.004L54.6983 220.579L58.2957 220.579L61.8931 220.579L61.8931 220.1C61.8931 219.836 61.85 219.577 61.7972 219.525ZM61.7972 282.81C61.7445 282.757 60.1256 282.714 58.1997 282.714L54.6983 282.714L54.6983 283.289L54.6983 283.864L58.2957 283.864L61.8931 283.864L61.8931 283.385C61.8931 283.121 61.85 282.862 61.7972 282.81ZM58.3044 346.43L54.6983 346.43L54.6983 347.008L54.6983 347.586L58.2597 347.548L61.8212 347.509L61.8658 346.97L61.9106 346.43L58.3044 346.43ZM61.7972 410.099C61.7445 410.046 60.1256 410.003 58.1997 410.003L54.6983 410.003L54.6983 410.578L54.6983 411.154L58.2957 411.154L61.8931 411.154L61.8931 410.674C61.8931 410.411 61.85 410.152 61.7972 410.099ZM58.3043 474.439L54.6983 474.439L54.6983 475.017L54.6983 475.594L58.2597 475.556L61.8212 475.518L61.8658 474.978L61.9106 474.439L58.3043 474.439ZM61.7971 538.539C61.7445 538.486 60.1256 538.443 58.1997 538.443L54.6983 538.443L54.6983 539.018L54.6983 539.594L58.2957 539.594L61.8931 539.594L61.8931 539.114C61.8931 538.85 61.85 538.592 61.7971 538.539ZM44.0499 25.1149L40.4525 25.1149L40.4525 25.6902L40.4525 26.2655L44.0499 26.2655L47.6473 26.2655L47.6473 25.6902L47.6473 25.1149L44.0499 25.1149ZM44.0859 89.1526L40.5244 89.191L40.5244 89.7663L40.5244 90.3416L44.0859 90.38L47.6473 90.4186L47.6473 89.7663L47.6473 89.114L44.0859 89.1526ZM44.0859 155.458L40.5244 155.496L40.4798 156.036L40.4351 156.575L44.0413 156.575L47.6473 156.575L47.6473 155.997L47.6473 155.42L44.0859 155.458ZM44.0859 219.462L40.5244 219.501L40.4798 220.04L40.4351 220.579L44.0413 220.579L47.6473 220.579L47.6473 220.002L47.6473 219.424L44.0859 219.462ZM44.0859 282.747L40.5244 282.786L40.4798 283.325L40.4351 283.864L44.0413 283.864L47.6473 283.864L47.6473 283.287L47.6473 282.709L44.0859 282.747ZM44.0413 346.43L40.4351 346.43L40.4798 346.97L40.5244 347.509L44.0859 347.548L47.6473 347.586L47.6473 347.008L47.6473 346.43L44.0413 346.43ZM44.0859 410.037L40.5244 410.075L40.4798 410.614L40.4351 411.154L44.0413 411.154L47.6473 411.154L47.6473 410.576L47.6473 409.998L44.0859 410.037ZM44.0499 474.439L40.4525 474.439L40.4525 475.014L40.4525 475.589L44.0499 475.589L47.6473 475.589L47.6473 475.014L47.6473 474.439L44.0499 474.439ZM44.0859 538.477L40.5244 538.515L40.4798 539.054L40.4351 539.594L44.0413 539.594L47.6473 539.594L47.6473 539.016L47.6473 538.438L44.0859 538.477ZM34.4088 -13L33.8332 -13L33.8332 -9.47619L33.8332 -5.95236L34.4088 -5.95236L34.9844 -5.95236L34.9844 -9.47619L34.9844 -13L34.4088 -13ZM34.4088 1.23912L33.8332 1.23912L33.8332 4.76295L33.8332 8.28678L34.4088 8.28678L34.9844 8.28678L34.9844 4.76295L34.9844 1.23912L34.4088 1.23912ZM34.4088 15.3344L33.8332 15.3344L33.8332 18.9302L33.8332 22.5259L34.4088 22.5259L34.9844 22.5259L34.9844 18.9302L34.9844 15.3344L34.4088 15.3344ZM34.4088 29.5736L33.8332 29.5736L33.8332 33.0974L33.8332 36.6212L34.4088 36.6212L34.9844 36.6212L34.9844 33.0974L34.9844 29.5736L34.4088 29.5736ZM34.4088 43.8127L33.8332 43.8127L33.8332 47.3365L33.8332 50.8604L34.4088 50.8604L34.9844 50.8604L34.9844 47.3365L34.9844 43.8127L34.4088 43.8127ZM34.4088 57.908L33.8332 57.908L33.8332 61.5038L33.8332 65.0995L34.4088 65.0995L34.9844 65.0995L34.9844 61.5038L34.9844 57.908L34.4088 57.908ZM34.4113 72.1472L33.8332 72.1472L33.8332 75.7515L33.8332 79.356L34.3729 79.3113L34.9125 79.2667L34.9509 75.7069L34.9894 72.1472L34.4113 72.1472ZM34.4088 86.3863L33.8332 86.3863L33.8332 89.9101L33.8332 93.434L34.4088 93.434L34.9844 93.434L34.9844 89.9101L34.9844 86.3863L34.4088 86.3863ZM34.4088 100.482L33.8332 100.482L33.8332 104.077L33.8332 107.673L34.4088 107.673L34.9844 107.673L34.9844 104.077L34.9844 100.482L34.4088 100.482ZM34.4088 114.721L33.8332 114.721L33.8332 118.316L33.8332 121.912L34.4088 121.912L34.9844 121.912L34.9844 118.316L34.9844 114.721L34.4088 114.721ZM34.4114 124.214L33.8332 124.214L33.8332 127.674L33.8332 131.135L34.3729 131.09L34.9125 131.045L34.951 127.629L34.9896 124.214L34.4114 124.214ZM34.4088 138.165L33.8332 138.165L33.8332 141.689L33.8332 145.213L34.4088 145.213L34.9844 145.213L34.9844 141.689L34.9844 138.165L34.4088 138.165ZM34.4088 152.26L33.8332 152.26L33.8332 155.856L33.8332 159.452L34.4088 159.452L34.9844 159.452L34.9844 155.856L34.9844 152.26L34.4088 152.26ZM34.4113 166.499L33.8332 166.499L33.8332 170.104L33.8332 173.708L34.3728 173.664L34.9125 173.619L34.9509 170.059L34.9894 166.499L34.4113 166.499ZM34.4088 180.739L33.8332 180.739L33.8332 184.262L33.8332 187.786L34.4088 187.786L34.9844 187.786L34.9844 184.262L34.9844 180.739L34.4088 180.739ZM34.8884 194.93C34.8358 194.877 34.5768 194.834 34.3128 194.834L33.8332 194.834L33.8332 198.43L33.8332 202.025L34.4088 202.025L34.9844 202.025L34.9844 198.526C34.9844 196.601 34.9412 194.982 34.8884 194.93ZM34.4088 209.073L33.8332 209.073L33.8332 212.669L33.8332 216.265L34.4088 216.265L34.9844 216.265L34.9844 212.669L34.9844 209.073L34.4088 209.073ZM34.4088 223.312L33.8332 223.312L33.8332 226.836L33.8332 230.36L34.4088 230.36L34.9844 230.36L34.9844 226.836L34.9844 223.312L34.4088 223.312ZM34.8884 237.503C34.8358 237.451 34.5767 237.407 34.3128 237.407L33.8332 237.407L33.8332 241.003L33.8332 244.599L34.4088 244.599L34.9844 244.599L34.9844 241.099C34.9844 239.174 34.9412 237.556 34.8884 237.503ZM34.4088 251.647L33.8332 251.647L33.8332 255.242L33.8332 258.838L34.4088 258.838L34.9844 258.838L34.9844 255.242L34.9844 251.647L34.4088 251.647ZM34.4113 265.886L33.8332 265.886L33.8332 269.49L33.8332 273.095L34.3728 273.05L34.9125 273.005L34.9509 269.446L34.9894 265.886L34.4113 265.886ZM34.4088 280.125L33.8332 280.125L33.8332 283.649L33.8332 287.173L34.4088 287.173L34.9844 287.173L34.9844 283.649L34.9844 280.125L34.4088 280.125ZM34.4088 294.364L33.8332 294.364L33.8332 297.888L33.8332 301.412L34.4088 301.412L34.9844 301.412L34.9844 297.888L34.9844 294.364L34.4088 294.364ZM34.4088 308.459L33.8332 308.459L33.8332 312.055L33.8332 315.651L34.4088 315.651L34.9844 315.651L34.9844 312.055L34.9844 308.459L34.4088 308.459ZM34.4088 322.698L33.8332 322.698L33.8332 326.222L33.8332 329.746L34.4088 329.746L34.9844 329.746L34.9844 326.222L34.9844 322.698L34.4088 322.698ZM34.4088 336.938L33.8332 336.938L33.8332 340.461L33.8332 343.985L34.4088 343.985L34.9844 343.985L34.9844 340.461L34.9844 336.938L34.4088 336.938ZM34.4088 351.033L33.8332 351.033L33.8332 354.629L33.8332 358.224L34.4088 358.224L34.9844 358.224L34.9844 354.629L34.9844 351.033L34.4088 351.033ZM34.4088 365.272L33.8332 365.272L33.8332 368.868L33.8332 372.464L34.4088 372.464L34.9844 372.464L34.9844 368.868L34.9844 365.272L34.4088 365.272ZM34.4088 379.511L33.8332 379.511L33.8332 383.035L33.8332 386.559L34.4088 386.559L34.9844 386.559L34.9844 383.035L34.9844 379.511L34.4088 379.511ZM34.4088 393.607L33.8332 393.607L33.8332 397.202L33.8332 400.798L34.4088 400.798L34.9844 400.798L34.9844 397.202L34.9844 393.607L34.4088 393.607ZM34.4113 407.846L33.8332 407.846L33.8332 411.45L33.8332 415.055L34.3728 415.01L34.9125 414.965L34.9509 411.405L34.9894 407.846L34.4113 407.846ZM34.4088 422.085L33.8332 422.085L33.8332 425.609L33.8332 429.132L34.4088 429.132L34.9844 429.132L34.9844 425.609L34.9844 422.085L34.4088 422.085ZM34.4088 436.324L33.8332 436.324L33.8332 439.848L33.8332 443.372L34.4088 443.372L34.9844 443.372L34.9844 439.848L34.9844 436.324L34.4088 436.324ZM34.4088 450.419L33.8332 450.419L33.8332 454.015L33.8332 457.611L34.4088 457.611L34.9844 457.611L34.9844 454.015L34.9844 450.419L34.4088 450.419ZM34.4088 464.658L33.8332 464.658L33.8332 468.182L33.8332 471.706L34.4088 471.706L34.9844 471.706L34.9844 468.182L34.9844 464.658L34.4088 464.658ZM34.8884 478.85C34.8358 478.797 34.5767 478.754 34.3128 478.754L33.8332 478.754L33.8332 482.349L33.8332 485.945L34.4088 485.945L34.9844 485.945L34.9844 482.445C34.9844 480.52 34.9412 478.902 34.8884 478.85ZM34.4088 492.993L33.8332 492.993L33.8332 496.589L33.8332 500.184L34.4088 500.184L34.9844 500.184L34.9844 496.589L34.9844 492.993L34.4088 492.993ZM34.4113 507.232L33.8332 507.232L33.8332 510.836L33.8332 514.441L34.3728 514.396L34.9124 514.352L34.9509 510.792L34.9894 507.232L34.4113 507.232ZM34.4088 521.471L33.8332 521.471L33.8332 524.995L33.8332 528.519L34.4088 528.519L34.9844 528.519L34.9844 524.995L34.9844 521.471L34.4088 521.471ZM34.4088 535.566L33.8332 535.566L33.8332 539.162L33.8332 542.758L34.4088 542.758L34.9844 542.758L34.9844 539.162L34.9844 535.566L34.4088 535.566ZM34.4088 549.806L33.8332 549.806L33.8332 553.401L33.8332 556.997L34.4088 556.997L34.9844 556.997L34.9844 553.401L34.9844 549.806L34.4088 549.806ZM34.4088 564.045L33.8332 564.045L33.8332 567.569L33.8332 571.092L34.4088 571.092L34.9844 571.092L34.9844 567.569L34.9844 564.045L34.4088 564.045ZM34.4146 573.537L33.8332 573.537L33.8332 574.769L33.8332 576L34.3728 575.955L34.9124 575.911L34.9542 574.724L34.9961 573.537L34.4146 573.537ZM29.8761 25.1149L26.3506 25.1149L26.3506 25.6902L26.3506 26.2655L29.8761 26.2655L33.4016 26.2655L33.4016 25.6902L33.4016 25.1149L29.8761 25.1149ZM29.8843 89.1191L26.3506 89.1191L26.3506 89.7689L26.3506 90.4187L29.8401 90.3802L33.3296 90.3416L33.3738 89.7303L33.4181 89.1191L29.8843 89.1191ZM29.8761 155.425L26.3506 155.425L26.3506 156L26.3506 156.575L29.8761 156.575L33.4015 156.575L33.4015 156L33.4015 155.425L29.8761 155.425ZM33.3056 219.525C33.2529 219.472 31.6664 219.429 29.7801 219.429L26.3506 219.429L26.3506 220.004L26.3506 220.579L29.8761 220.579L33.4015 220.579L33.4015 220.1C33.4015 219.836 33.3584 219.577 33.3056 219.525ZM29.8761 282.714L26.3506 282.714L26.3506 283.289L26.3506 283.864L29.8761 283.864L33.4015 283.864L33.4015 283.289L33.4015 282.714L29.8761 282.714ZM29.8761 346.43L26.3506 346.43L26.3506 347.006L26.3506 347.581L29.8761 347.581L33.4015 347.581L33.4015 347.006L33.4015 346.43L29.8761 346.43ZM29.8761 410.003L26.3506 410.003L26.3506 410.578L26.3506 411.154L29.8761 411.154L33.4015 411.154L33.4015 410.578L33.4015 410.003L29.8761 410.003ZM29.8761 474.439L26.3506 474.439L26.3506 475.014L26.3506 475.589L29.8761 475.589L33.4015 475.589L33.4015 475.014L33.4015 474.439L29.8761 474.439ZM29.8761 538.443L26.3506 538.443L26.3506 539.018L26.3506 539.594L29.8761 539.594L33.4015 539.594L33.4015 539.018L33.4015 538.443L29.8761 538.443ZM15.6303 25.1149L12.1048 25.1149L12.1048 25.6902L12.1048 26.2655L15.6303 26.2655L19.1558 26.2655L19.1558 25.6902L19.1558 25.1149L15.6303 25.1149ZM15.6303 89.1191L12.0883 89.1191L12.1326 89.7303L12.1768 90.3416L15.6303 90.3416L19.0838 90.3416L19.128 89.7303L19.1723 89.1191L15.6303 89.1191ZM15.6303 155.425L12.1048 155.425L12.1048 156L12.1048 156.575L15.6303 156.575L19.1557 156.575L19.1557 156L19.1557 155.425L15.6303 155.425ZM18.9727 219.493C18.8721 219.455 17.3018 219.441 15.4832 219.462L12.1767 219.501L12.1321 220.04L12.0874 220.579L15.6216 220.579L19.1557 220.579L19.1557 220.072C19.1557 219.792 19.0734 219.532 18.9727 219.493ZM15.6303 282.714L12.1048 282.714L12.1048 283.289L12.1048 283.864L15.6303 283.864L19.1557 283.864L19.1557 283.289L19.1557 282.714L15.6303 282.714ZM15.6303 346.43L12.1048 346.43L12.1048 347.006L12.1048 347.581L15.6303 347.581L19.1557 347.581L19.1557 347.006L19.1557 346.43L15.6303 346.43ZM15.6303 410.003L12.1048 410.003L12.1048 410.578L12.1048 411.154L15.6303 411.154L19.1557 411.154L19.1557 410.578L19.1557 410.003L15.6303 410.003ZM15.6303 474.439L12.1048 474.439L12.1048 475.014L12.1048 475.589L15.6303 475.589L19.1557 475.589L19.1557 475.014L19.1557 474.439L15.6303 474.439ZM15.6303 538.443L12.1048 538.443L12.1048 539.018L12.1048 539.594L15.6303 539.594L19.1557 539.594L19.1557 539.018L19.1557 538.443L15.6303 538.443ZM4.95788 25.2108C4.90521 25.158 3.77202 25.1149 2.43968 25.1149L0.0174624 25.1149L0.0174624 25.6902L0.0174623 26.2655L2.53566 26.2655L5.05386 26.2655L5.05386 25.7861C5.05386 25.5223 5.01069 25.2634 4.95788 25.2108ZM4.877 89.1861C4.77009 89.145 3.64912 89.1293 2.386 89.1513L0.089408 89.191L0.089408 89.7663L0.089408 90.3416L2.53566 90.3416L4.9819 90.3416L5.02666 89.8011C5.05602 89.4461 5.00464 89.235 4.877 89.1861ZM4.95787 155.52C4.90521 155.468 3.77202 155.425 2.43967 155.425L0.0174567 155.425L0.0174567 156L0.0174566 156.575L2.53565 156.575L5.05385 156.575L5.05385 156.096C5.05385 155.832 5.01068 155.573 4.95787 155.52ZM4.86821 219.492C4.76605 219.453 3.64912 219.439 2.38599 219.461L0.0894023 219.501L0.0447858 220.04L2.88119e-05 220.579L2.52701 220.579L5.05385 220.579L5.05385 220.072C5.05385 219.789 4.97124 219.532 4.86821 219.492ZM4.96479 282.817C4.90824 282.76 3.77201 282.714 2.43967 282.714L0.0174511 282.714L0.0174511 283.293L0.0174511 283.871L2.49967 283.832L4.9819 283.793L5.02465 283.356C5.04825 283.116 5.02119 282.873 4.96479 282.817ZM2.54429 346.43L0.0174483 346.43L0.0174483 347.009L0.0174483 347.588L2.49967 347.548L4.98189 347.509L5.02651 346.97L5.07127 346.43L2.54429 346.43ZM4.95786 410.099C4.90519 410.046 3.77201 410.003 2.43966 410.003L0.0174456 410.003L0.0174455 410.578L0.0174455 411.154L2.53564 411.154L5.05384 411.154L5.05384 410.674C5.05384 410.411 5.01067 410.152 4.95786 410.099ZM2.54428 474.439L0.0174427 474.439L0.0174427 475.018L0.0174427 475.596L2.49966 475.557L4.98189 475.518L5.0265 474.978L5.07126 474.439L2.54428 474.439ZM4.95785 538.539C4.90519 538.486 3.772 538.443 2.43966 538.443L0.0174399 538.443L0.0174399 539.018L0.0174399 539.594L2.53564 539.594L5.05383 539.594L5.05383 539.114C5.05383 538.85 5.01066 538.592 4.95785 538.539Z" fill="#1E293B"/>
</svg>
